<svg width="400" height="400" xmlns="http://www.w3.org/2000/svg">
  <rect width="100%" height="100%" fill="#f0f2f5" />
  <g><path d="M349.549 209.404 C283.427 170.443, 216.47 133.231, 72.796 48.889 M350.43 209.39 C282.672 169.691, 216.497 131.034, 73.671 49.245 M350.537 329.715 C282.765 292.655, 214.5 252.73, 50 154.957 M350.319 329.057 C253.339 274.848, 156.096 220.051, 49.887 156.338 M281.17 348.925 C215.746 308.726, 149.038 272.593, 49.457 215.204 M282.245 349.353 C229.795 320.768, 179.661 292.467, 49.315 215.769 M349.874 171.76 C274.639 127.394, 196.267 85.488, 139.297 49.339 M349.422 172.866 C270.633 127.189, 190.947 80.827, 137.739 49.314 M350.966 314.841 C268.287 266.147, 184.324 217.167, 49.948 141.383 M349.695 314.877 C239.343 250.8, 128.48 186.553, 50.311 142.228 M351.169 198.858 C290.793 167.64, 228.926 131.973, 89.331 51.01 M350.422 200.058 C296.092 168.751, 241.408 137.275, 90.303 49.982 M346.303 350.616 C258.845 299.936, 167.945 249.438, 50.174 178.965 M345.683 350.15 C287.033 317.23, 226.917 281.403, 49.958 179.809 M202.435 351.388 C141.536 314.527, 85.467 279.376, 47.809 262.688 M202.603 350.506 C149.571 318.816, 96.124 289.326, 50.512 261.988 M348.549 127.893 C302.243 99.804, 257.408 70.239, 219.775 50.283 M349.35 126.654 C306.951 100.122, 264.17 75.129, 218.927 49.369 M168.921 351.077 C122.967 323.917, 75.25 297.032, 49.961 279.195 M168.976 350.074 C123.644 320.786, 75.61 293.558, 51 279.981 M350.458 83.104 C337.8 76.809, 323.463 68.685, 290.819 50.862 M350.447 84.188 C337.352 77.372, 324.69 69.577, 290.674 48.915 M349.152 162.941 C308.302 141.954, 270.515 117.409, 154.765 51.013 M350.968 163.216 C307.201 137.607, 265.087 113.381, 154.398 50.263 M289.018 348.59 C217.513 308.123, 142.452 265.04, 49.128 210.618 M290.564 349.639 C214.736 304.97, 138.92 261.265, 50.058 210.867 M350.544 129.825 C318.952 113.078, 288.53 94.132, 209.007 50.609 M350.534 129.566 C319.531 115.378, 291.073 98.555, 209.458 49.414 M349.589 261.008 C270.21 213.303, 189.769 164.993, 49.01 85.832 M349.784 259.926 C266.501 212.591, 182.212 164.465, 49.877 86.541 M75.471 350.443 C65.581 342.804, 54.652 339.062, 49.388 335.526 M74.303 350.626 C65.867 344.434, 56.304 338.887, 49.505 336.124 M351.628 168.006 C301.008 140.997, 248.957 112.441, 144.578 50.657 M349.52 167.847 C273.32 123.853, 197.268 80.37, 145.72 49.48 M242.696 349.035 C190.551 322.406, 139.221 290.067, 50.997 240.255 M242.342 350.855 C191.351 318.645, 140.132 289.224, 49.69 238.594 M350.261 237.951 C249.471 179.343, 148.345 121.151, 51.073 64.795 M350.92 237.207 C261.566 184.539, 172.803 133.135, 49.573 63.8 M161.922 351.35 C126.787 331.75, 92.109 309.949, 50.496 285.059 M162.209 350.828 C122.255 325.816, 82.553 303.01, 50.369 285.259 M349.223 101.678 C324.732 89.47, 304.906 76.158, 258.647 50.495 M350.538 102.372 C328.788 91.354, 307.402 77.798, 257.086 49.56 M113.566 348.267 C97.965 341.747, 83.333 333.287, 51.428 314.132 M115.085 349.827 C96.752 339.664, 79.713 329.393, 49.691 313.887 M217.635 350.641 C172.716 324.445, 124.805 293.143, 51.032 253.423 M218.835 349.836 C163.555 317.498, 109.207 286.735, 50.644 253.603 M251.526 348.814 C201.129 322.052, 146.523 290.363, 49.422 233.355 M250.939 350.747 C180.531 309.519, 111.089 269.462, 50.688 235.3 M65.801 351.343 C62.771 347.781, 55.046 345.569, 51.185 339.298 M66.025 350.218 C61.128 347.116, 56.275 343.217, 49.943 341.683 M351.481 176.914 C275.985 135.899, 202.231 93.602, 130.608 51.35 M350.89 177.396 C269.42 131.746, 188.767 84.142, 130.666 49.648" stroke="#3498db" stroke-width="1" fill="none" stroke-opacity="0.3"></path><path d="M96.617 349.395 C84.601 342.022, 72.44 336.618, 50.803 322.716 M97.378 349.566 C83.46 340.573, 67.57 332.218, 50.154 322.842 M299.152 349.277 C216.698 304.319, 137.767 257.595, 51.713 206.184 M297.684 350.223 C212.713 300.609, 128.457 253.153, 50.506 206.897 M347.979 99.194 C316.942 79.221, 286.003 60.079, 267.62 48.044 M349.31 97.597 C324.888 83.364, 300.399 68.195, 266.367 49.44 M351.741 122.863 C312.6 96.95, 270.53 76.3, 225.389 50.004 M349.69 120.647 C308.293 97.012, 265.314 71.956, 227.005 49.056 M349.716 302.397 C256.761 247.357, 164.846 193.537, 48.606 127.58 M350.199 301.769 C241.665 239.373, 133.489 176.345, 49.408 127.956 M349.395 347.831 C280.116 307.123, 211.874 266.012, 50.532 173.913 M350.611 348.29 C278.919 306.808, 209.074 266.687, 50.791 174.194 M350.287 245.634 C274.742 201.133, 202.404 159.857, 50.106 72.352 M349.773 246.472 C244.117 184.496, 139.63 123.303, 50.184 72.764 M227.097 349.399 C185.428 324.222, 143.59 301.288, 51.233 246.651 M225.358 350.945 C158.056 308.981, 89.781 268.524, 49.785 248.489 M329.342 348.759 C259.072 308.243, 186.812 267.936, 49.964 187.81 M330.294 349.984 C247.954 301.272, 164.821 252.423, 49.69 188.681 M349.791 310.213 C256.923 255.414, 163.674 199.592, 49.344 136.973 M349.049 310.739 C236.904 246.541, 124.699 182.078, 50.173 137.103 M350.432 272.978 C245.324 214.945, 139.716 152.939, 49.994 101.733 M349.969 273.788 C257.358 220.711, 165.967 167.213, 50.763 101.034 M350.034 52.007 C348.762 51.196, 347.243 50.367, 346.429 50.197 M349.824 52.041 C348.459 51.074, 347.155 50.344, 346.234 49.875 M176.471 351.491 C142.716 327.045, 105.935 309.444, 50.225 274.024 M177.183 349.45 C130.015 323.121, 80.735 293.503, 49.077 275.794 M350.873 338.789 C268.474 292.18, 187.95 245.123, 49.696 165.823 M349.37 338.882 C239.422 275.911, 130.023 212.215, 50.69 164.968 M350.943 227.392 C238.706 164.605, 128.858 101.901, 50.377 53.766 M350.7 227.302 C237.771 164.364, 126.418 99.818, 49.977 54.346 M350.24 296.373 C236.37 230.454, 123.493 165.236, 50.823 124.098 M350.426 297.727 C269.818 251.838, 189.93 205.372, 49.483 123.57 M351.708 153.108 C301.85 126.215, 252.749 96.52, 169.989 48.512 M350.462 154.587 C276.844 111.122, 205.436 70.909, 169.699 48.902 M348.428 217.492 C285.26 182.416, 222.68 146.87, 57.762 50.657 M350.387 217.605 C286.585 180.372, 223.714 144.313, 57.494 49.956 M192.597 350.859 C153.16 325.553, 116.394 303.979, 50.67 268.668 M193.757 349.787 C141.907 320.99, 86.497 289.276, 50.569 266.148 M350.334 255.29 C248.413 195.556, 147.511 138.696, 48.673 80.875 M349.906 254.859 C276.654 210.337, 200.762 167.291, 49.299 82.339 M337.092 350.287 C277.008 317.307, 216.742 280.832, 50.34 184.412 M338.502 350.123 C266.298 309.371, 196.113 267.559, 50.1 183.249 M349.17 73.847 C337.113 66.545, 325.508 62.338, 305.577 48.194 M350.803 76.26 C335.32 65.362, 319.042 56.992, 305.258 48.895 M349.827 94.575 C328.98 81.792, 308.854 70.648, 271.96 51.492 M350.442 93.441 C330.931 82.238, 312.837 71.949, 273.344 49.438 M351.795 79.183 C331.848 68.999, 315.671 58.93, 298.781 50.872 M350.518 80.568 C331.515 68.37, 312.207 57.465, 298.149 50.519 M351.652 180.256 C263.422 130.449, 174.312 78.309, 121.735 51.455 M350.129 181.811 C261.891 131.082, 175.112 80.66, 122.354 50.057 M349.56 284.086 C250.693 226.346, 149.692 168.74, 49.662 110.987 M349.897 283 C235.482 216.552, 120.025 150.023, 50.073 109.192" stroke="#3498db" stroke-width="1" fill="none" stroke-opacity="0.5133333333333333"></path><path d="M83.552 351.126 C76.251 346.259, 66.484 342.655, 51.201 332.239 M81.056 350.29 C72.282 343.04, 62.803 338.014, 50.291 331.188 M49.739 349.849 C49.739 349.849, 49.739 349.849, 49.739 349.849 M49.739 349.849 C49.739 349.849, 49.739 349.849, 49.739 349.849 M106.208 351.154 C86.386 338.012, 65.446 328.128, 48.843 316.827 M107.091 350.608 C89.93 340.963, 73.028 330.98, 50.09 318.545 M349.17 232.257 C253.266 177.171, 159.83 122.158, 49.635 58.021 M350.034 232.439 C269.446 186.248, 188.472 139.585, 50.484 59.1 M351.379 133.971 C299.727 106.193, 250.977 78.052, 203.441 51.72 M351.165 134.785 C313.854 115.887, 280.453 95.633, 203.019 49.9 M350.895 224.152 C285.134 185.859, 218.099 146.718, 50.888 50.625 M349.921 223.329 C276.068 181.25, 201.629 139.131, 49.825 49.626 M350.385 240.909 C287.618 205.394, 227.907 170.075, 50.477 66.732 M350.142 240.895 C283.678 201.528, 215.073 163.323, 50.081 68.61 M145.093 351.551 C123.039 337.494, 96.762 323.169, 48.571 293.835 M146.516 350.15 C114.665 332.032, 83.89 314.827, 50.944 294.811 M348.013 67.501 C343.118 61.91, 337.875 60.4, 320.344 50.326 M348.935 65.216 C341.578 62.319, 335.32 57.731, 321.861 49.466 M348.978 156.553 C296.014 128.723, 245.652 101.668, 163.408 51.025 M350.164 157.336 C311.35 136.271, 271.314 112.874, 161.567 49.453 M351.051 319.759 C246.435 260.056, 146.28 203.189, 50.684 146.001 M349.642 320.562 C264.634 271.482, 179.343 220.994, 50.254 146.766 M351.55 196.555 C256.962 139.613, 159.331 83.95, 96.775 51.078 M350.128 196.14 C271.423 148.361, 193.442 103.066, 98.441 50.621 M349.616 324.493 C237.432 260.29, 126.635 195.651, 50.91 150.71 M350.028 324.128 C237.147 260.411, 126.169 196.6, 49.991 151.705 M137.868 348.367 C110.043 332.953, 83.9 319.477, 51.361 300.986 M138.634 350.944 C105.001 330.422, 70.06 311.291, 49.405 299.926 M349.579 251.154 C235.374 185.56, 121.966 119.18, 50.099 78.38 M350.199 250.673 C243.746 190.762, 136.375 128.667, 50.068 76.949 M350.786 107.879 C320.912 90.241, 291.924 75.904, 251.091 50.772 M349.738 106.794 C330.248 94.87, 310.115 83.583, 250.972 49.896 M349.875 112.148 C315.022 92.384, 279.21 72.217, 241.788 51.764 M350.797 112.203 C323.267 97.18, 295.178 82.361, 242.939 50.958 M350.076 214.515 C277.999 171.8, 205.92 128.125, 64.903 50.021 M349.396 213.435 C243.108 151.809, 134.846 89.645, 66.51 49.293 M349.05 343.394 C259.297 293.34, 167.807 240.948, 48.644 168.516 M350.892 342.929 C248.746 283.478, 147.009 225.235, 49.19 169.434 M348.549 56.95 C347.306 54.295, 343.674 52.882, 338.248 49.012 M350.026 56.173 C345.598 54.457, 342.898 52.058, 337.772 49.894 M349.418 265.275 C273.882 223.224, 200.081 178.841, 50.63 91.01 M349.122 263.875 C245.909 202.564, 141.706 144.101, 49.951 91.25 M275.312 349.693 C224.569 319.218, 172.484 290.288, 50.76 221.104 M273.41 350.562 C224.072 321.516, 174.646 292.938, 50.933 220.596 M258.892 350.13 C187.77 312.963, 121.491 270.835, 48.523 231.025 M258.322 350.049 C176.446 303.968, 96.672 257.136, 50.36 228.95 M349.071 89.771 C328.335 79.173, 307.808 65.608, 280.606 47.778 M349.551 89.627 C330.716 78.345, 312.816 66.368, 282.008 50.157 M154.486 351.303 C118.345 331.514, 84.861 311.623, 47.856 288.09 M153.458 349.418 C128.325 335.303, 105.214 321.552, 49.096 290.649 M349.509 332.899 C242.6 273.015, 133.331 209.537, 50.131 159.549 M350.004 334.3 C242.263 272.757, 136.18 211.726, 50.701 160.629" stroke="#3498db" stroke-width="1" fill="none" stroke-opacity="0.7266666666666666"></path><path d="M350.901 306.3 C244.016 245.489, 140.73 185.653, 50.547 134.013 M350.352 305.658 C233.012 237.705, 114.736 170.34, 50.283 132.873 M130.51 351.694 C109.679 339.142, 84.884 326.678, 49.535 305.608 M130.311 350.015 C97.296 330.925, 66.505 312.778, 49.416 303.875 M351.266 148.785 C309.727 126.444, 263.778 102.467, 178.213 49.094 M349.588 150.243 C301.78 119.868, 251.816 91.502, 177.481 49.884 M307.113 350.015 C226.787 304.014, 147.681 257.072, 49.168 201.739 M306.362 349.745 C213.707 295.426, 122.61 243.04, 50.331 201.928 M348.09 145.911 C290.809 112.525, 231.19 75.984, 185.993 50.8 M349.896 145.114 C315.404 123.894, 281.629 104.173, 186.328 49.381 M57.563 350.491 C54.68 347.959, 51.623 346.788, 50.124 345.954 M57.948 350.1 C55.832 348.624, 54.332 348.065, 50.212 345.47 M349.874 291.72 C239.778 229.743, 128.873 166.78, 50.883 118.715 M349.991 292.095 C254.744 237.934, 160.416 182.637, 50.563 119.63 M88.79 350.409 C80.566 342.241, 70.064 337.43, 52.025 326.16 M90.356 350.96 C80.514 343.913, 73.224 338.566, 50.964 327.434 M351.307 185.435 C290.105 151.348, 231.026 117.991, 112.909 50.183 M349.563 186.389 C271.709 139.416, 192.636 92.777, 115.007 50.284 M349.579 269.209 C238.659 207.243, 129.145 143.639, 50.675 95.378 M350.875 269.477 C258.872 217.019, 165.656 164.357, 49.364 95.781 M348.491 59.641 C347.856 60.821, 341.714 57.246, 330.747 51.148 M350.358 60.676 C346.898 58.664, 341.681 56.394, 329.595 50.382 M209.059 351.811 C165.347 323.668, 123.073 298.729, 48.371 255.998 M211.036 349.085 C172.014 327.431, 132.657 305.152, 49.483 257.941 M351.214 118.363 C324.247 102.907, 298.986 85.58, 235.609 50.817 M349.795 117.356 C325.766 101.705, 300.673 87.002, 233.925 50.264 M312.667 349.164 C222.175 298.535, 130.446 245.64, 48.634 198.156 M313.761 349.976 C211.009 288.748, 109.282 230.923, 49.908 197.34 M349.788 72.138 C342.306 64.522, 335.585 60.427, 314.596 50.079 M349.132 70.382 C336.09 63.212, 322.205 54.157, 314.571 50.275 M321.3 351.22 C255.374 310.996, 186.348 272.367, 51.52 194.431 M321.642 350.597 C256.397 310.268, 190.468 273.003, 50.419 192.717 M264.088 349.687 C185.788 302.454, 103.467 253.01, 50.655 226.834 M265.185 349.789 C181.878 302.781, 97.816 253.574, 50.825 225.729 M348.412 204.298 C276.15 158.333, 199.762 115.474, 83.39 48.476 M349.401 204.282 C287.947 170.079, 226.898 135.606, 81.832 49.343 M187.722 351.21 C132.7 317.963, 80.861 288.074, 51.4 272.05 M185.877 350.726 C144.407 326.663, 104.6 304.278, 49.189 272.432 M349.799 191.149 C290.481 157.228, 228.716 120.168, 107.095 48.538 M350.225 190.022 C294.446 159.802, 240.687 127.614, 105.838 50.162 M348.925 287.052 C242.263 226.515, 136.592 162.995, 51.263 114.504 M349.556 287.73 C287.012 253.6, 224.941 217.299, 50.336 114.072 M235.257 350.95 C166.194 312.987, 98.157 273.311, 49.504 245.304 M234.84 350.765 C161.795 306.136, 87.071 264.059, 50.138 243.492 M120.705 349.478 C104.208 341.951, 88.635 328.795, 52.155 308.013 M122.761 350.649 C99.074 338.219, 75.933 324.422, 50.407 308.473 M350.281 278.989 C267.765 228.135, 184.234 181.649, 50.364 104.511 M349.509 278.64 C238.332 213.251, 126.742 148.618, 50.451 105.351 M349.828 138.335 C304.161 114.118, 261.464 87.025, 192.187 51.691 M350.703 139.1 C312.981 118.062, 277.001 98.411, 193.776 49.191" stroke="#3498db" stroke-width="1" fill="none" stroke-opacity="0.94"></path><path d="M50.471 48.801 C123.774 49.99, 195.651 50.601, 351.244 50.676 M50.291 50.626 C146.227 49.593, 241.341 49.136, 350.503 49.812 M348.787 49.134 C349.406 124.783, 348.504 200.306, 351.411 348.798 M350.215 49.659 C351.863 118.542, 351.736 187.973, 349.817 349.513 M348.722 350.961 C238.76 349.426, 126.627 350.847, 49.367 348.721 M350.611 349.934 C279.56 349.734, 210.346 348.797, 50.672 349.702 M50.683 348.746 C48.644 246.437, 50.358 141.184, 48.535 49.303 M50.462 350.072 C51.234 247.406, 50.783 144.687, 50.036 50.442" stroke="#000" stroke-width="2" fill="none"></path></g>
  <g><path d="M218.219 274.574 C236.482 245.179, 252.603 217.27, 270.224 184.196 M218.831 273.164 C232.037 247.89, 245.672 223.17, 270.348 182.071 M137.421 232.152 C149.672 209.921, 162.198 182.964, 199.184 125.559 M137.101 234.422 C156.595 198.712, 176.205 163.622, 199.567 123.106 M130.365 186.836 C132.84 177.464, 141.328 168.317, 154.022 141.32 M130.704 185.631 C135.968 173.986, 142.874 161.214, 155.462 141.872 M250.757 251.507 C255.351 243.645, 260.267 231.937, 267.598 225.813 M250.08 253.223 C254.971 244.862, 260.397 236.358, 265.747 224.675 M177.508 273.242 C196.77 239.327, 217.45 204.07, 247.651 147.852 M175.64 272.948 C202.364 229.393, 227.087 186.096, 249.454 146.837 M129.492 221.025 C141.522 197.278, 155.68 175.686, 184.69 125.27 M131.068 221.392 C150.238 187.618, 167.756 154.681, 183.67 127.572 M211.769 274.777 C231.297 242.239, 249.636 205.026, 266.337 174.67 M210.508 275.166 C229.567 239.881, 250.164 204.003, 267.92 175.212" stroke="#e74c3c" stroke-width="0.5" fill="none" stroke-opacity="0.3"></path><path d="M152.668 255.824 C168.184 227.461, 184.829 200.746, 226.54 128.857 M151.234 255.962 C170.017 222.932, 190.517 190.819, 225.454 129.207 M189.64 272.539 C204.767 247.179, 220.961 218.848, 258.924 155.58 M189.764 274.338 C212.145 237.668, 233.33 200.153, 258.4 155.716 M132.462 229.017 C155.063 189.933, 174.123 157.281, 194.465 123.78 M132.586 226.868 C157.029 186.14, 180.68 146.454, 192.871 125.322 M237.587 267.396 C248.234 245.155, 259.831 220.845, 271.01 207.18 M236.367 264.818 C249.207 244.195, 262.073 222.335, 269.089 206.559 M200.226 276.463 C224.498 242.094, 242.654 207.628, 263.81 168.321 M202.199 276.203 C223.272 238.306, 247.554 198.662, 264.478 168.761 M132.611 208.947 C150.737 176.032, 166.003 146.556, 174.282 131.617 M130.693 208.44 C144.45 183.55, 159.624 159.133, 176.03 130.993" stroke="#e74c3c" stroke-width="0.5" fill="none" stroke-opacity="0.5133333333333333"></path><path d="M193.868 276.36 C218.423 230.744, 246.845 186.855, 259.617 161.827 M195.86 275.511 C212.372 248.396, 228.67 218.599, 261.495 162.187 M144.454 246.343 C160.618 218.449, 177.271 186.751, 210.969 124.549 M142.415 246.649 C167.394 205.581, 191.544 164.394, 211.881 126.702 M170.214 270.445 C193.615 230.831, 216.182 189.269, 243.859 144.105 M170.997 270.549 C195.571 230.409, 218.332 189.738, 244.34 141.821 M165.52 266.283 C186.506 230.894, 210.361 193.616, 238.218 136.62 M165.894 266.693 C192.727 219.784, 218.985 174.748, 241.035 137.701 M227.732 270.516 C241.089 244.093, 254.38 218.081, 268.68 195.311 M227.1 269.901 C239.682 245.221, 254.819 220.201, 270.551 193.74 M141.028 239.346 C167.873 195.895, 190.921 151.197, 207.583 124.528 M140.89 239.919 C162.773 198.836, 186.218 158.296, 207.35 123.994" stroke="#e74c3c" stroke-width="0.5" fill="none" stroke-opacity="0.7266666666666666"></path><path d="M161.124 264.088 C187.858 214.123, 215.128 165.931, 234.46 135.408 M161.084 262.036 C177.503 234.005, 193.481 206.874, 235.446 133.852 M147.088 252.525 C170.732 209.604, 196.211 167.517, 218.949 128.614 M147.434 252.729 C176.353 203.606, 203.576 152.968, 219.156 127.644 M130.483 196.454 C144.546 175.306, 156.997 153.129, 168.935 131.893 M130.608 197.552 C140.625 178.01, 151.72 161.024, 168.003 132.852 M141.543 153.312 C141.543 153.312, 141.543 153.312, 141.543 153.312 M141.543 153.312 C141.543 153.312, 141.543 153.312, 141.543 153.312 M181.187 272.292 C212.394 227.311, 238.459 180.785, 254.934 149.047 M183.622 273.853 C204.913 232.157, 229.073 192.81, 254.956 148.508 M155.072 260.95 C181.864 212.296, 210.869 163.949, 229.171 131.942 M156.066 259.031 C173.263 230.913, 188.5 204.511, 230.857 130.001" stroke="#e74c3c" stroke-width="0.5" fill="none" stroke-opacity="0.94"></path><path d="M228.102 128.589 C237.448 131.815, 246.849 140.744, 253.855 149.311 C260.862 157.877, 267.534 169.223, 270.139 179.987 C272.744 190.751, 271.543 202.911, 269.485 213.897 C267.426 224.882, 263.815 236.929, 257.787 245.899 C251.759 254.868, 242.597 262.551, 233.315 267.714 C224.033 272.878, 212.518 276.328, 202.096 276.881 C191.674 277.434, 180.188 275.352, 170.781 271.031 C161.374 266.709, 152.397 259.368, 145.655 250.949 C138.913 242.53, 133.103 231.455, 130.328 220.516 C127.552 209.576, 127.119 196.536, 129 185.314 C130.882 174.093, 135.288 162.025, 141.616 153.185 C147.945 144.345, 157.679 137.308, 166.97 132.276 C176.261 127.244, 186.063 122.908, 197.362 122.994 C208.661 123.08, 227.516 130.145, 234.764 132.791 C242.011 135.436, 241.187 137.829, 240.849 138.867 M196.813 122.601 C206.457 120.862, 218.431 125.643, 227.627 129.73 C236.823 133.817, 245.088 139.05, 251.988 147.12 C258.888 155.191, 265.774 167.088, 269.026 178.151 C272.278 189.214, 273.174 202.31, 271.499 213.498 C269.825 224.685, 265.282 236.397, 258.98 245.275 C252.678 254.154, 242.75 261.293, 233.686 266.767 C224.622 272.241, 214.563 277.617, 204.595 278.12 C194.627 278.623, 183.45 274.051, 173.878 269.784 C164.307 265.516, 154.106 260.308, 147.165 252.514 C140.224 244.721, 135.028 234.009, 132.233 223.024 C129.439 212.039, 129.116 198.015, 130.397 186.604 C131.679 175.192, 134.022 163.494, 139.923 154.554 C145.823 145.615, 156.435 138.206, 165.799 132.966 C175.163 127.726, 190.904 124.28, 196.108 123.116 C201.312 121.952, 197.132 124.613, 197.025 125.98" stroke="#000" stroke-width="1" fill="none"></path></g>
</svg>
