<svg width="500" height="500" xmlns="http://www.w3.org/2000/svg">
  <rect width="100%" height="100%" fill="#f8f9fa" />
  <g><path d="M381.643 221.006 C351.285 193.468, 323.138 163.936, 248.91 87.683 M383.055 220.385 C337.436 172.369, 289.138 125.786, 249.735 88.169 M296.774 239.444 C283.701 223.413, 267.169 208.894, 249.853 195.018 M296.832 240.046 C284.001 226.139, 271.481 213.319, 249.911 193.862 M419.374 183.801 C396.802 163.379, 373.203 139.429, 315.244 81.534 M417.785 184.392 C394.809 161.105, 372.545 138.276, 316.201 83.007 M285.694 241.576 C272.843 228.542, 259.066 215.067, 251.692 207.938 M283.568 241.635 C275.755 233.334, 267.877 224.773, 250.343 207.168 M271.55 245.431 C265.856 239.433, 257.913 230.846, 251.37 221.771 M272.319 244.604 C268.722 240.103, 262.857 233.923, 249.761 221.113 M250.316 250.316 C250.316 250.316, 250.316 250.316, 250.316 250.316 M250.316 250.316 C250.316 250.316, 250.316 250.316, 250.316 250.316 M268.038 246.661 C260.861 238.843, 257.366 236.434, 252.314 228.846 M266.441 245.824 C263.186 240.88, 258.338 236.928, 249.338 229.853 M426.521 205.299 C375.73 156.013, 329.257 110.655, 295.987 74.596 M424.17 205.302 C377.454 159.24, 331.712 111.67, 294.97 75.491 M372.543 224.64 C329.329 180.432, 285.449 137.757, 249.432 101.989 M371.75 221.969 C330.421 181.685, 290.403 140.321, 249.637 102.623" stroke="#e74c3c" stroke-width="0.5" fill="none" stroke-opacity="0.4"></path><path d="M358.799 226.172 C329.592 198.21, 304.58 168.667, 251.662 115.287 M359.183 224.344 C325.858 192.996, 292.708 158.988, 250.63 116.219 M397.971 217.403 C340.933 156.038, 282.001 98.177, 253.178 70.765 M399.991 215.169 C345.323 161.631, 293.595 108.813, 252.425 69.622 M405.721 214.639 C369.623 181.22, 333.751 146.816, 259.423 70.912 M404.77 213.6 C371.733 179.951, 338.508 147.953, 260.091 70.386 M326.251 233.487 C302.96 208.632, 276.554 186.478, 250.379 157.911 M323.629 232.155 C309.308 217.436, 294.062 201.802, 251.072 157.794 M423.137 196.729 C395.819 168.106, 368.108 138.798, 304.232 75.818 M422.304 195.469 C387.629 159.948, 350.863 124.688, 304.945 78.298 M403.626 155.002 C387.613 143.003, 376.139 129.43, 342.064 96.521 M404.711 155.747 C381.477 134.08, 360.021 112.07, 341.669 94.106 M412.918 213.779 C367.877 169.571, 321.714 124.048, 269.257 70.71 M412.101 212.721 C381.806 182.519, 351.807 151.609, 269.154 71.092 M417.097 213.613 C361.182 155.72, 306.673 100.578, 278.375 71.897 M418.139 211.477 C371.486 166.845, 326.082 121.71, 277.58 72.398 M330.562 230.791 C308.281 208.086, 289.519 186.98, 251.538 152.472 M330.933 232.605 C308.076 210.057, 286.368 187.071, 251.045 151.175" stroke="#e74c3c" stroke-width="0.5" fill="none" stroke-opacity="0.5"></path><path d="M261.574 247.178 C259.557 243.924, 254.879 240.682, 249.303 234.61 M261.687 247.295 C256.69 242.47, 253.668 238.504, 250.567 236.717 M389.111 217.155 C350.19 181.765, 317.558 146.216, 252.035 81.945 M389.189 219.195 C352.026 181.628, 316.61 146.207, 250.382 80.265 M393.96 218.615 C361.562 186.425, 328.808 153.803, 249.923 74.816 M394.477 216.818 C354.375 178.056, 314.379 137.013, 249.848 73.891 M412.075 173.721 C379.336 139.902, 347.185 107.955, 328.764 86.656 M412.59 172.74 C383.953 143.396, 352.581 113.56, 328.572 89.099 M352.951 224.909 C327.492 202.887, 305.629 178.093, 249.875 123.239 M352.634 226.853 C330.412 202.943, 307.978 179.714, 250.83 123.454 M348.186 227.93 C310.726 191.294, 276.104 156.171, 249.501 129.38 M347.559 227.713 C314.759 195.231, 281.487 161.452, 250.198 129.66 M306.445 236.313 C289.394 217.631, 267.032 199.581, 251.572 180.67 M308.302 235.934 C292.992 222.681, 280.078 207.941, 250.898 178.697 M300.542 238.72 C286.609 223.549, 269.988 208.334, 248.617 185.033 M302.155 238.864 C281.171 218.871, 262.291 199.608, 250.811 186.173 M336.572 231.152 C318.892 210.924, 302.758 196.405, 251.82 143.646 M337.383 231.375 C320.01 212.256, 301.98 194.58, 249.338 144.336" stroke="#e74c3c" stroke-width="0.5" fill="none" stroke-opacity="0.6"></path><path d="M344.075 230.199 C317.659 204.808, 293.38 178.083, 249.126 135.987 M341.644 228.924 C308.05 195.096, 274.922 162.368, 250.242 136.357 M313.216 234.469 C291.884 212.473, 266.856 192.376, 249.367 173.192 M313.081 236.453 C294.46 217.712, 275.457 197.369, 251.177 171.94 M364.524 221.883 C332.323 190.189, 299.457 158.177, 249.29 109.794 M364.652 224.093 C319.497 177.58, 274.108 131.323, 250.888 109.101 M318.28 235.995 C295.361 209.292, 269.463 184.639, 249.627 166.602 M319.114 234.369 C301.75 215.361, 282.891 195.717, 250.218 165.59 M423.663 210.263 C372.227 160.776, 323.63 111.646, 288.086 74.581 M422.171 210.027 C373.148 163.556, 324.335 113.879, 286.302 74.152 M280.505 243.33 C269.585 233.551, 261.233 228.96, 249.791 216.097 M278.265 243.267 C270.741 235.144, 263.916 227.521, 250.632 214.398 M255.239 248.801 C253.563 247.428, 251.304 245.379, 250.074 244.015 M256.021 248.773 C253.98 246.872, 251.411 244.38, 250.516 243.641 M292.298 241.94 C280.167 231.28, 270.721 220.371, 249.346 199.729 M290.263 240.672 C278.431 228.924, 265.587 215.944, 250.532 200.832 M378.515 220.366 C349.007 195.379, 317.38 166.87, 248.835 92.772 M377.15 222.179 C340.623 184.77, 305.06 148.603, 249.69 95.416" stroke="#e74c3c" stroke-width="0.5" fill="none" stroke-opacity="0.94"></path><path d="M251.734 248.448 C249.961 212.559, 249.848 171.26, 249.279 70.231 M250.876 249.307 C250.329 193.652, 251.595 135.415, 249.042 69.307 M250 70 C332.18 68.917, 407.391 126.962, 425.465 210.437 M249.507 70.941 C334.978 68.314, 404.91 128.269, 424.222 210.232 M425.967 209.581 C368.23 225.629, 305.449 239.968, 250.985 248.602 M424.836 209.148 C369.705 220.809, 313.509 234.048, 249.028 250.568" stroke="#000" stroke-width="1" fill="none"></path></g><text x="328.5597150342004" y="151.48923320902827" text-anchor="middle" font-family="sans-serif" font-size="14" font-weight="bold" fill="white" style="text-shadow: 1px 1px 2px rgba(0,0,0,0.5)">A</text><g><path d="M402.722 377.661 C362.843 339.371, 323.201 300.903, 284.708 261.148 M403.733 376.78 C374.551 347.733, 346.901 320.221, 284.792 259.339 M436.124 304.444 C422.34 294.644, 408.869 278.765, 370.185 240.887 M437.01 306.731 C419.601 289.115, 402.912 269.664, 371.542 241.476 M439.117 294.129 C422.364 279.526, 408.824 259.794, 382.104 238.635 M439.875 294.947 C417.823 274.417, 397.14 252.021, 382.503 236.991 M194.499 430.873 C193.152 430.295, 191.011 428.333, 186.829 424.108 M195.571 431.957 C193.815 430.663, 191.621 428.457, 186.349 423.428 M358.39 416.006 C332.129 390.738, 306.121 365.679, 242.489 304.273 M357.253 417.998 C332.744 392.14, 307.883 367.276, 244.221 303.1 M441.86 266.806 C434.682 258.178, 424.053 248.956, 404.676 234.308 M441.688 268.888 C428.351 253.567, 414.881 239.839, 407.405 232.563 M412.653 366.819 C381.118 337.854, 350.826 305.119, 303.42 254.205 M413.025 365.304 C382.073 338.598, 353.983 308.99, 302.753 256.51 M323.842 433.245 C293.662 404.745, 265.505 372.464, 227.259 335.593 M323.895 434.17 C295.912 405.855, 268.233 376.792, 228.205 337.776 M206.306 436.666 C201.591 428.217, 193.355 423.898, 189.573 416.929 M207.072 437.254 C201.722 429.792, 195.306 425.005, 188.768 418.404 M442.892 277.477 C427.821 262.698, 419.016 250.448, 399.642 233.557 M441.965 276.144 C426.667 260.481, 410.786 245.422, 400.118 234.031 M313.041 436.085 C285.894 411.73, 257.767 382.088, 222.047 347.251 M314.693 437.618 C286.838 408.336, 258.224 380.966, 223.821 346.691 M270.996 443.843 C253.293 425.989, 237.945 409.448, 206.571 379.054 M272.944 444.434 C247.158 418.614, 221.738 392.761, 207.452 380.703 M433.446 315.767 C413.245 298.112, 393.686 276.768, 358.983 242.05 M435.191 317.625 C411.515 295.089, 388.146 271.903, 359.766 244.009 M279.583 445.758 C256.669 424.262, 237.854 401.619, 210.522 377.303 M278.37 443.99 C265.236 430.282, 250.369 416.428, 210.601 375.877 M251.002 445.863 C233.024 428.248, 219.85 414.861, 200.239 396.056 M251.416 445.828 C232.359 424.864, 210.51 404.104, 199.735 394.02 M384.44 397.365 C360.887 369.814, 335.053 344.41, 258.495 268.578 M385.876 395.759 C347.38 356.411, 307.89 315.506, 260.799 270.13 M432.97 326.629 C399.083 297.78, 369.748 267.852, 348.004 247.431 M431.309 328.798 C412.431 311.104, 395.16 291.633, 349.55 246.999" stroke="#3498db" stroke-width="0.5" fill="none" stroke-opacity="0.4"></path><path d="M363.108 414.097 C318.129 371.856, 274.211 329.707, 245.227 300.5 M361.776 414.206 C313.895 368.153, 269.426 322.433, 247.364 300.194 M440.262 302.196 C422.964 284.473, 408.747 272.33, 376.547 239.374 M439.557 301.371 C423.251 286.698, 409.087 272, 377.691 238.526 M397.985 386.839 C353.565 344.149, 310.813 302.317, 276.033 261.946 M397.571 385.262 C359.789 348.831, 321.58 311.287, 273.349 262.705 M400.93 381.8 C373.207 356.287, 347.66 327.643, 278.527 262.195 M400.34 381.601 C372.833 353.828, 344.15 326.717, 280.135 261.881 M441.179 281.239 C423.443 263.653, 403.673 246.914, 395.88 236.175 M442.837 283.093 C432.522 273.257, 422.889 263.359, 395.342 235.381 M424.631 348.978 C403.673 325.421, 381.259 305.25, 326.825 251.448 M422.904 347.629 C391.644 316.212, 360.469 285.143, 326.415 251.32 M306.216 436.697 C280.881 411.08, 256.306 387.507, 222.399 350.419 M307.882 438.454 C282.448 412.926, 255.624 386.82, 220.939 351.09 M376.203 407.542 C349.611 379.089, 322.115 353.056, 253.842 284.468 M375.062 405.045 C327.811 360.457, 281.701 312.315, 254.038 284.134 M439.304 247.93 C433.625 240.855, 428.242 233.819, 422.326 228.366 M441.348 246.895 C434.192 240.677, 428.126 234.154, 422.906 227.87 M424.196 343.97 C388.351 308.187, 352.842 271.488, 331.858 251.641 M424.772 344.013 C396.934 313.433, 367.318 284.999, 330.784 248.975 M184.457 427.897 C184.457 427.897, 184.457 427.897, 184.457 427.897 M184.457 427.897 C184.457 427.897, 184.457 427.897, 184.457 427.897 M439.632 236.999 C437.317 234.687, 431.367 230.519, 428.353 227.496 M440.613 238.734 C435.989 235.329, 432.706 230.249, 429.38 227.205 M427.766 340.089 C401.241 314.093, 376.66 291.042, 336.24 249.382 M427.479 337.959 C396.154 308.451, 366.853 278.803, 337.452 247.75 M429.009 332.251 C401.337 307.054, 375.647 282.207, 342.3 245.913 M429.763 332.773 C395.123 299.747, 361.095 265.028, 343.352 247.536 M393.314 390.15 C362.343 355.748, 329.657 324.216, 270.502 264.335 M392.192 388.924 C344.842 340.714, 296.029 291.766, 268.631 263.816 M419.167 351.573 C400.348 332.732, 376.583 311.466, 321.381 251.21 M420.077 352.595 C393.578 325.844, 367.625 301.475, 320.742 251.93" stroke="#3498db" stroke-width="0.5" fill="none" stroke-opacity="0.5"></path><path d="M370.785 407.082 C331.746 372.142, 297.167 336.174, 252.416 290.139 M371.125 408.564 C337.586 373.464, 303.912 341.517, 251.696 289.121 M366.741 409.725 C318.898 365.777, 270.257 317.226, 247.187 293.149 M366.293 412.104 C337.09 380.583, 306.718 350.935, 249.366 295.234 M383.139 399.595 C353.126 371.501, 324.034 339.992, 258.307 275.882 M381.748 400.228 C351.473 369.628, 319.506 338.625, 257.267 275.274 M407.751 371.889 C373.538 334.355, 335.12 294.414, 298.152 259.462 M409.025 369.275 C385.601 346.408, 362.61 323.165, 297.631 258.445 M338.531 428.308 C313.23 400.996, 284.964 374.969, 236.374 323.099 M338.442 426.635 C314.435 401.889, 288.65 375.97, 234.088 322.347 M355.037 419.383 C327.493 392.107, 296.514 365.641, 243.225 309.099 M354.335 420.892 C315.473 382.19, 279.2 344.396, 242.281 308.234 M335.864 427.711 C312.294 406.331, 289.937 383.763, 232.471 328.489 M333.64 430.076 C310.166 405.668, 285.696 380.485, 233.426 327.182 M342.745 424.093 C302.575 383.951, 265.144 343.518, 237.28 318.714 M344.174 425.716 C312.134 391.421, 279.16 359.02, 238.241 318.432 M436.533 312.765 C409.659 287.34, 387.655 261.947, 366.853 240.229 M436.179 312.014 C421.927 298.241, 408.052 283.189, 366.894 242.144 M329.266 432.711 C307.231 409.598, 283.048 388.708, 229.289 330.444 M330.105 431.723 C302.244 403.319, 273.806 376.687, 230.885 331.759 M244.101 442.338 C231.811 434.098, 220.375 423.306, 198.086 400.372 M243.641 443.438 C225.779 426.365, 207.779 408.497, 198.874 399.02 M234.871 442.795 C222.57 432.335, 213.158 423.402, 194.071 405.383 M234.233 441.8 C225.315 433.748, 217.029 423.739, 195.09 404.104 M442.619 263.859 C433.457 249.471, 419.793 239.43, 410.508 229.86 M442.93 262.862 C431.726 250.38, 419.924 239.214, 412.287 232.184 M406.771 373.258 C383.901 347.886, 358.308 325.509, 289.396 259.048 M407.072 373.609 C361.259 327.147, 317.264 282.831, 291.568 259.524 M317.864 434.816 C293.35 410.738, 270.799 384.936, 226.365 339.656 M319.3 435.452 C291.198 408.349, 262.619 379.451, 225.953 340.758 M349.868 422.253 C315.812 387.169, 281.031 356.26, 240.477 312.112 M349.735 423.062 C318.346 392.616, 285.813 361.739, 238.65 313.195" stroke="#3498db" stroke-width="0.5" fill="none" stroke-opacity="0.6"></path><path d="M389.408 393.859 C360.392 360.744, 327.193 333.301, 262.741 263.281 M388.623 392.656 C361.346 365.365, 332.775 337.17, 261.329 266.191 M412.271 361.342 C379.669 326.923, 344.779 290.124, 310.737 256.101 M413.824 359.769 C393.057 339.001, 370.336 319.289, 308.84 255.217 M290.955 442.585 C262.078 411.964, 232.232 382.928, 212.73 364.774 M290.83 442.326 C267.607 420.299, 243.284 394.577, 214.862 365.118 M444.129 255.242 C436.65 247.511, 431.445 240.341, 416.197 228.786 M441.749 255.601 C437.467 248.722, 432.815 243.791, 417.164 230.439 M433.403 323.422 C417.557 305.842, 400.031 290.24, 354.374 245.224 M431.778 322.379 C414.06 304.65, 396.889 287.736, 354.555 244.428 M304.328 439.53 C273.274 408.533, 242.82 381.469, 220.29 354.798 M301.842 439.717 C277.697 416.048, 252.765 390.617, 219.489 357.071 M285.442 442.266 C267.409 424.896, 248.952 406.797, 213.562 372.547 M284.998 443.994 C262.712 418.756, 238.884 396.867, 211.363 370.873 M438.941 230.307 C438.265 228.574, 437.095 228.045, 435.401 225.967 M438.856 229.708 C438.339 229.117, 437.649 228.517, 435.278 226.336 M442.23 288.383 C419.358 266.762, 402.607 246.9, 390.368 238.691 M440.568 287.624 C422.253 271.131, 404.099 252.586, 389.985 236.255 M258.825 445.642 C242.721 428.13, 228.528 412.722, 203.961 390.785 M257.081 445.792 C244.352 431.549, 232.148 418.385, 203.596 390.005 M378.427 403.642 C336.199 358.288, 294.698 317.17, 256.326 280.058 M378.019 403.538 C336.302 361.312, 294.64 318.494, 256.684 280.521 M266.356 445.509 C253.656 429.002, 239.851 415.268, 205.943 384.034 M264.58 444.908 C244.389 422.976, 220.851 400.682, 205.623 383.836 M418.586 354.759 C378.932 318.843, 343.81 282.47, 313.829 254.27 M417.646 356.88 C377.172 316.537, 338.316 277.855, 315.462 254.536 M218.896 439.717 C208.753 433.09, 201.023 424.022, 192.437 413.939 M217.191 440.176 C211.649 434.024, 206.834 428.855, 192.136 414.396 M295.793 441.195 C266.855 410.343, 236.461 380.781, 214.433 361.176 M297.886 441.773 C279.804 425.059, 262.576 407.465, 215.525 360.554 M227.009 438.664 C215.781 429.772, 204.946 422.555, 191.756 410.786 M225.637 440.189 C216.867 431.311, 207.998 423.974, 193.795 409.626" stroke="#3498db" stroke-width="0.5" fill="none" stroke-opacity="0.94"></path><path d="M263.897 267.359 C310.2 255.451, 358.951 242.431, 439.235 224.058 M261.715 265.417 C302.917 255.916, 344.398 246.639, 437.069 225.537 M437.957 225.583 C470.645 358.873, 343.151 479.175, 209.047 438.337 M437.283 225.214 C468.569 361.186, 340.171 476.738, 208.195 438.201 M209.414 437.64 C202.496 434.717, 190.549 430.635, 183.158 427.336 M210.521 437.826 C198.569 432.796, 192.974 433.598, 182.805 429.797 M185.347 425.962 C210.862 369.233, 236.668 313.392, 262.363 264.51 M185.156 427.642 C209.062 374.832, 235.538 322.532, 261.668 265.109" stroke="#000" stroke-width="1" fill="none"></path></g><text x="341.02951107137505" y="364.14739644033233" text-anchor="middle" font-family="sans-serif" font-size="14" font-weight="bold" fill="white" style="text-shadow: 1px 1px 2px rgba(0,0,0,0.5)">B</text><g><path d="M233.616 284.21 C226.108 276.545, 218.491 264.687, 208.556 257.695 M233.261 282.677 C224.785 273.281, 214.755 263.507, 208.467 257.903 M152.254 398.946 C136.84 381.214, 117.393 362.736, 97.871 346.878 M153.358 400.541 C138.305 385.928, 124.374 373.682, 99.271 344.797 M220.42 313.476 C203.781 294.243, 183.861 276.008, 175.684 268.067 M220.135 312.789 C209.838 301.472, 197.464 288.664, 174.274 266.676 M198.087 355.634 C171.574 325.872, 141.07 296.946, 123.908 276.737 M199.027 354.15 C185.29 339.137, 169.513 322.952, 123.507 279.319 M181.203 392.009 C145.03 358.339, 111.079 326.424, 76.712 287.46 M181.105 392.587 C146.155 359.721, 112.458 324.848, 77.186 289.782 M217.097 322.504 C200.592 304.288, 184.921 289.877, 165.035 268.206 M216.102 320.852 C203.904 309.896, 194.373 299.378, 162.448 269.151 M224.373 309.202 C215.377 297.352, 205.354 288.558, 179.182 265.853 M223.45 307.648 C208.678 294.754, 195.744 280.814, 181.439 265.158 M202.849 351.856 C183.108 329.386, 161.037 310.085, 128.578 275.736 M203.166 350.224 C187.706 335.836, 172.661 320.48, 129.267 277.326 M178.267 396.429 C150.278 368.224, 117.784 337.239, 78.854 296.514 M179.884 398.701 C154.491 374.561, 130.133 349.595, 77.692 295.669 M176.922 403.246 C145.401 371.985, 116.667 346.157, 78.625 307.094 M176.34 403.123 C147.247 373.967, 119.068 344.876, 79.484 306.221" stroke="#2ecc71" stroke-width="0.5" fill="none" stroke-opacity="0.4"></path><path d="M214.061 325.793 C196.859 311.521, 179.317 293.684, 156.193 270.254 M212.791 326.871 C194.023 306.311, 172.106 285.254, 158 271.236 M198.504 360.984 C176.39 339.501, 155.813 321.141, 115.688 280.516 M197.062 360.839 C171.738 334.744, 148.339 311.034, 117.758 280.928 M191.568 372.287 C156.428 340.453, 126.365 308.314, 100.543 282.831 M189.454 373.878 C157.368 341.99, 127.316 311.988, 99.683 283.408 M169.519 410.659 C147.692 390.506, 127.031 365.783, 90.133 329.69 M171.041 410.361 C146.375 387.006, 120.853 361.305, 89.608 331.329 M186.863 378.785 C160.694 352.603, 133.401 326.349, 93.187 284.133 M187.379 378.695 C153.011 344.699, 118.392 309.075, 94.935 284.544 M184.121 382.662 C153.509 350.651, 121.163 317.055, 89.245 285.859 M185.54 383.74 C148.441 347.728, 112.607 311.014, 89.163 285.852 M237.467 277.28 C229.178 274.071, 226.152 269.09, 213.739 258.329 M236.618 278.66 C230.405 272.307, 223.655 265.193, 214.15 256.589 M206.086 346.362 C175.196 320.906, 150.835 291.213, 135.696 276.009 M204.184 344.864 C187.908 330.628, 173.029 313.711, 133.611 275.058 M217.127 316.553 C207.226 305.441, 193.783 292.96, 167.368 269.581 M218.552 316.704 C205.634 305.064, 193.94 294.315, 169.47 268.889" stroke="#2ecc71" stroke-width="0.5" fill="none" stroke-opacity="0.5"></path><path d="M246.302 258.983 C243.433 256.191, 240.128 253.886, 238.428 252.466 M245.779 259.305 C243.734 257.485, 241.503 255.104, 238.048 252.668 M194.301 364.104 C177.414 344.002, 158.341 326.924, 113.691 281.363 M195.167 363.879 C167.79 337.876, 139.35 309.195, 111.442 280.717 M247.716 255.313 C247.2 253.8, 245.594 252.874, 244.029 250.872 M248.254 255.233 C247.276 253.925, 246.009 252.616, 243.885 251.149 M239.329 274.173 C233.393 269.309, 226.424 262.777, 223.135 257.059 M239.962 274.095 C234.893 270.477, 231.037 264.771, 220.907 256.408 M243.875 265.483 C240.469 260.838, 239.392 258.624, 233.932 255.288 M243.163 264.135 C240.878 261.709, 238.041 259.728, 233.16 254.567 M233.799 288.673 C223.71 280.076, 213.301 270.199, 202.973 258.507 M231.994 288.634 C222.597 278.827, 211.153 268.022, 202.789 259.218 M194.271 370.054 C165.008 342.496, 137.072 313.793, 107.235 283.319 M192.484 370.247 C162.655 339.584, 132.578 310.757, 106.485 283.633 M122.329 376.888 C122.329 376.888, 122.329 376.888, 122.329 376.888 M122.329 376.888 C122.329 376.888, 122.329 376.888, 122.329 376.888 M225.279 298.02 C219.739 288.858, 209.171 279.213, 193.893 264.831 M226.211 298.543 C214.595 284.037, 200.543 270.941, 193.247 262.532" stroke="#2ecc71" stroke-width="0.5" fill="none" stroke-opacity="0.6"></path><path d="M208.257 340.913 C190.922 326.489, 178.748 312.59, 139.957 276.79 M206.551 341 C187.619 324.121, 168.852 304.913, 140.155 274.636 M230.729 294.246 C221.829 285.533, 213.735 273.695, 199.449 259.891 M230.723 294.292 C221.962 284.897, 213.146 277.577, 198.917 261.946 M241.787 267.72 C236.19 265.337, 234.402 261.752, 228.709 256.886 M241.279 268.903 C235.346 262.805, 229.965 258.398, 227.304 255.418 M250.34 250.248 C250.063 249.935, 249.695 249.737, 249.563 249.665 M250.312 250.303 C250.165 250.158, 249.965 249.929, 249.607 249.603 M175.269 406.445 C137.673 370.32, 103.395 337.306, 82.788 315.971 M175.112 408.879 C151.101 385.376, 127.613 360.259, 82.714 316.577 M211.96 330.602 C198.831 316.986, 185.861 304.749, 152.272 273.031 M210.697 331.264 C191.037 312.657, 172.268 292.201, 152.841 272.493 M185.501 387.33 C144.113 347.816, 105.261 311.472, 81.843 287.637 M183.519 388.874 C150.307 355.158, 118.26 322.059, 83.239 287.62 M209.87 337.051 C188.517 316.4, 171.743 299.849, 147.024 274.849 M209.526 336.368 C184.459 312.41, 161.948 288.177, 147.161 273.514 M224.673 304.593 C211.464 287.861, 194.321 270.935, 188.459 264.212 M225.715 303.129 C214.038 291.849, 204.534 281.911, 186.085 264.496" stroke="#2ecc71" stroke-width="0.5" fill="none" stroke-opacity="0.94"></path><path d="M251.193 251.645 C231.261 287.602, 212.848 330.187, 171.889 411.203 M250.987 249.651 C228.182 294.175, 207.183 338.04, 171.59 411.997 M171.901 412.174 C120.761 388.705, 87.731 342.697, 73.231 289.685 M170.018 411.871 C124.155 386.925, 87.657 344.188, 72.955 289.264 M73.59 289.099 C125.112 278.166, 173.161 266.097, 249.034 249.191 M73.847 289.783 C132.977 278.636, 190.965 264.527, 250.356 249.153" stroke="#000" stroke-width="1" fill="none"></path></g><text x="151.48923320902827" y="328.5597150342004" text-anchor="middle" font-family="sans-serif" font-size="14" font-weight="bold" fill="white" style="text-shadow: 1px 1px 2px rgba(0,0,0,0.5)">C</text><g><path d="M184.145 265.01 C161.238 238.604, 136.506 213.611, 90.012 171.393 M183.974 264.12 C151.919 233.034, 118.07 199.802, 90.395 170.499 M115.474 282.407 C103.781 272.355, 93.771 258.315, 68.435 237.734 M114.41 281.422 C102.895 268.533, 89.474 255.555, 70.171 236.741 M179.341 267.203 C156.96 249.461, 138.974 226.812, 87.321 174.518 M178.321 266.52 C141.226 230.897, 105.476 194.256, 87.038 174.497 M133.676 276.642 C112.754 258.491, 93.842 242.83, 74.019 216.702 M131.177 277.74 C118.908 264.717, 107.061 251.533, 74.134 217.508 M251.238 83.917 C246.647 83.196, 243.733 79.012, 238.314 71.697 M251.585 84.027 C246.643 79.728, 243.737 76.872, 237.431 70.131 M250.012 199.01 C222.625 166.211, 189.735 138.027, 151.058 101.195 M250.432 196.688 C215.355 161.63, 180.112 126.092, 152.252 98.863 M252.635 149.62 C225.237 120.648, 197.945 97.737, 183.404 81.676 M250.511 147.358 C229.347 126.124, 207.943 106.172, 185.932 81.549 M153.719 272.73 C130.056 244.094, 102.339 221.771, 79.701 197.129 M154.466 271.47 C131.037 248.039, 108.549 224.785, 78.38 195.955 M240.722 250.588 C208.59 216.863, 172.296 183.873, 118.156 129.181 M241.316 251.699 C193.807 205.145, 145.721 159.464, 118.726 127.699 M249.646 170.418 C232.177 152.611, 218.694 138.509, 170.304 87.391 M250.15 170.041 C233.635 151.512, 217.105 133.567, 170.004 88.93 M142.506 274.31 C127.79 257.584, 108.558 240.145, 75.326 208.095 M143.293 273.084 C128.348 258.027, 115.422 244.599, 76.38 207.069 M196.408 263.883 C171.162 237.403, 147.324 214.433, 92.327 160.335 M195.116 263.314 C171.24 237.721, 148.472 212.75, 94.625 161.567 M171.819 266.555 C141.574 240.381, 114.324 208.4, 85.217 179.991 M173.023 267.04 C151.142 245.053, 128.379 223.731, 84.982 180.76 M250.34 203.976 C210.842 166.883, 173.211 126.487, 148.457 103.308 M251.325 204.361 C227.445 180.065, 203.361 156.568, 148.07 102.82" stroke="#f1c40f" stroke-width="0.5" fill="none" stroke-opacity="0.4"></path><path d="M252.316 190.578 C217.31 153.168, 178.572 117.401, 157.287 97.667 M250.829 189.681 C216.75 155.077, 182.551 121.802, 157.062 95.538 M250.63 182.826 C213.807 147.038, 178.76 115.159, 160.6 93.184 M250.97 183.051 C225.695 157.448, 198.34 132.474, 161.619 93.005 M251.384 234.002 C216.452 196.887, 180.602 165.183, 130.341 113.457 M250.21 232.424 C224.429 206.999, 195.893 179.518, 131.085 113.524 M92.126 286.179 C85.396 278.035, 78.525 273.153, 70.896 264.893 M92.489 285.445 C87.207 281.964, 83.687 278.48, 70.795 266.156 M223.785 254.011 C193.47 225.66, 160.306 191.095, 107.093 141.528 M224.847 255.235 C187.108 219.887, 149.413 182.786, 108.573 140.492 M159.036 271.306 C140.908 252.686, 124.653 233.212, 81.682 188.619 M160.451 270.978 C134.942 244.217, 108.032 217.074, 80.656 189.143 M147.699 274.457 C127.72 251.875, 106.974 229.62, 77.254 201.833 M150.316 273.714 C121.475 246.564, 93.32 217.142, 76.984 201.925 M205.729 261.288 C184.038 236.906, 160.76 216.253, 98.567 152.363 M206.423 260.069 C172.152 226.451, 139.162 191.148, 99.497 151.537 M251.759 126.61 C235.986 112.249, 222.152 99.471, 200.92 77.982 M251.13 126.871 C237.095 114.443, 224.592 101.562, 201.452 76.59 M248.994 154.954 C223.477 125.559, 196.531 100.478, 180.618 84.914 M250.836 155.414 C229.106 133.097, 208.02 111.673, 179.985 84.111 M87.678 285.959 C84.236 284.716, 80.921 280.013, 73.704 274.811 M86.768 287.734 C80.281 283.31, 76.283 278.277, 72.644 273.586 M249.07 99.518 C244.033 92.671, 240.785 89.901, 225.606 71.747 M249.856 97.965 C241.968 91.438, 234.054 82.41, 224.695 72.525 M249.951 106.602 C238.308 92.798, 228.584 80.829, 217.133 72.77 M251.466 106.025 C237.466 92.779, 224.67 80.303, 218.464 72.653 M251.025 142.008 C228.654 121.557, 211.943 101.644, 190.093 80.599 M250.177 140.806 C234.355 124.296, 217.105 107.795, 190.668 79.899" stroke="#f1c40f" stroke-width="0.5" fill="none" stroke-opacity="0.5"></path><path d="M135.993 273.431 C121.024 259.309, 107.781 241.448, 76.295 213.332 M137.48 274.378 C118.705 257.272, 99.781 236.916, 75.459 213.089 M249.613 213.588 C224.579 186.893, 200.796 163.044, 142.095 105.194 M251.085 211.288 C217.919 177.821, 185.403 144.692, 144.637 105.914 M74.663 290.204 C74.663 290.204, 74.663 290.204, 74.663 290.204 M74.663 290.204 C74.663 290.204, 74.663 290.204, 74.663 290.204 M249.544 175.856 C217.63 144.046, 186.538 112.174, 164.02 93.39 M249.944 176.335 C221.861 146.589, 194.775 118.928, 166.878 92.259 M211.494 257.99 C177.413 223.3, 143.521 187.379, 103.63 147.652 M211.824 257.887 C175.716 220.373, 138.819 183.188, 101.633 147.673 M120.283 278.834 C103.36 265.373, 88.475 246.944, 72.708 229.474 M119.825 279.713 C107.217 265.718, 91.899 250.701, 70.933 229.88 M251.921 114.643 C241.498 101.528, 229.354 93.915, 211.168 76.061 M250.115 113.484 C235.393 98.037, 220.483 83.481, 211.711 73.734 M250.822 247.796 C216.648 213.714, 180.541 178.45, 124.518 120.748 M249.909 247.78 C219.561 216.376, 188.941 185.451, 125.629 120.23 M103.471 283.441 C95.416 276.842, 90.002 271.127, 70.348 251.631 M103.927 283.166 C94.008 273.957, 83.851 264.101, 71.7 251.386 M188.637 263.197 C153.176 226.191, 112.86 188.958, 89.752 167.664 M189.537 264.406 C157.44 229.817, 123.445 194.977, 91.253 165.128 M251.173 225.03 C207.91 181.734, 167.928 137.76, 136.607 108.646 M251.356 224.974 C213.551 188.93, 177.102 152.079, 136.153 110.9 M230.123 254.687 C196.235 222.615, 164.086 189.894, 111.071 134.357 M231.22 254.853 C196.394 221.354, 161.759 188.326, 110.874 136.842 M251.173 118.768 C235.204 107.873, 224.982 91.152, 205.732 76.198 M251.463 118.838 C235.717 104.618, 221.081 89.216, 207.223 75.461 M110.444 281.018 C94.29 269.696, 82.285 254.428, 70.754 243.649 M108.395 282.23 C102.65 274.866, 94.419 267.071, 71.217 244.3" stroke="#f1c40f" stroke-width="0.5" fill="none" stroke-opacity="0.6"></path><path d="M164.596 270.257 C142.911 244.967, 119.263 220.134, 82.058 186.531 M167.313 268.823 C142.047 244.171, 116.858 219.006, 83.323 184.095 M237.642 253.741 C211.364 229.994, 187.14 205.285, 112.54 131.78 M235.446 253.829 C199.393 215.684, 161.536 178.003, 114.325 131.207 M247.661 250.155 C220.19 223.4, 190.274 196.37, 120.504 122.784 M246.438 250.627 C210.934 213.981, 175.604 176.919, 121.925 125.387 M80.493 287.844 C77.406 285.675, 75.385 283.82, 72.99 282.045 M80.759 288.625 C78.442 287.358, 76.72 286.188, 73.207 281.96 M127.415 276.526 C113.405 265.188, 98.502 250.778, 70.065 223.105 M126.715 278.675 C111.107 262.613, 94.42 245.151, 72.677 222.789 M250.665 77.157 C247.436 75.079, 245.825 73.147, 243.334 70.614 M250.448 76.883 C247.829 74.495, 245.036 71.494, 243.497 69.866 M252.711 239.838 C210.358 196.905, 170.542 157.92, 126.54 117.812 M249.826 240.973 C222.219 210.977, 193.657 183.459, 128.325 118.667 M200.575 260.422 C172.948 230.209, 142.562 199.358, 97.627 155.736 M200.649 261.562 C175.377 237.029, 151.475 213.132, 96.284 156.85 M97.103 286.133 C87.217 274.429, 78.19 264.738, 68.684 259.056 M96.931 284.483 C89.407 277.166, 79.902 268.858, 70.599 257.423 M252.669 135.747 C229.138 112.82, 210.653 93.231, 194.167 78.721 M250.301 134.068 C228.206 112.522, 208.011 90.947, 194.699 78.219 M250.069 218.283 C221.865 191.404, 193.601 164.067, 141.249 109.155 M250.166 218.256 C210.706 178.575, 170.936 138.791, 140.514 107.806 M248.958 89.96 C247.468 87.993, 239.083 83.593, 231.369 71.621 M251.474 91.224 C242.071 84.748, 235.745 76.726, 229.235 70.891 M220.036 256.558 C179.925 221.028, 142.645 182.951, 105.754 143.213 M218.522 256.086 C178.27 218.505, 138.236 178.79, 105.501 143.121 M249.105 163.24 C220.676 132.823, 193.719 103.361, 174.628 86.964 M250.984 161.892 C230.286 142.216, 210.374 121.134, 175.002 85.627" stroke="#f1c40f" stroke-width="0.5" fill="none" stroke-opacity="0.94"></path><path d="M249.71 249.169 C209.58 257.698, 171.647 267.487, 72.913 289.524 M250.452 250.785 C197.912 262.007, 144.921 273.771, 74.494 290.632 M74.513 290.054 C49.026 177.391, 133.031 69.21, 250.007 70.16 M75.789 290.961 C47.108 175.65, 134.132 70.941, 251.385 69.769 M250.322 68.458 C249.481 135.947, 251.048 201.988, 251.572 251.793 M249.075 70.059 C248.887 117.436, 249.548 164.701, 250.822 250.221" stroke="#000" stroke-width="1" fill="none"></path></g><text x="151.48923320902824" y="171.4402849657996" text-anchor="middle" font-family="sans-serif" font-size="14" font-weight="bold" fill="white" style="text-shadow: 1px 1px 2px rgba(0,0,0,0.5)">D</text>
</svg>
