<svg width="500" height="400" xmlns="http://www.w3.org/2000/svg">
  <rect width="100%" height="100%" fill="#ffffff" />
  <g><path d="M216.622 112.256 C312.1 98.607, 398.578 139.709, 402.884 201.785 C397.294 213.548, 398.041 224.501, 403.251 233.487 C399.579 173.958, 307.036 129.857, 215.236 144.498 C219.463 135, 218.114 124.39, 217.204 113.992" stroke="none" stroke-width="0" fill="white"></path></g><g><path d="M216.622 112.256 C308.617 101.438, 400.116 144.753, 400.989 202.004 C397.86 210.945, 396.321 223.072, 400.345 229.433 C401.157 169.112, 308.994 130.458, 214.811 141.392 C213.919 130.707, 214.926 125.971, 220.152 111.16" stroke="none" stroke-width="0" fill="rgba(0,0,0,0.1)"></path><path d="M216.622 112.256 C311.891 99.967, 399.893 143.395, 399.042 201.28 M215.599 113.854 C309.076 98.888, 397.937 141.924, 398.918 201.373 M400.569 201.59 C400.949 212.323, 399.327 224.242, 398.219 228.249 M400.823 200.299 C399.844 208.733, 400.1 218.339, 400.477 230.54 M400 230 C400.874 170.608, 310.929 129.024, 216.042 142.023 M400.802 229.458 C401.333 172.947, 309.392 131.258, 216.251 144.416 M216.611 143.973 C217.957 131.451, 215.351 125.217, 216.812 113.042 M216.584 141.556 C216.31 130.324, 217.784 119.585, 216.957 111.573" stroke="#666" stroke-width="0.5" fill="none"></path></g><g><path d="M400 230 C400 230, 400 230, 400 230 M400 230 C400 230, 400 230, 400 230 M399.902 219.903 C399.756 220.031, 399.477 219.926, 398.907 219.936 M399.974 219.977 C399.593 219.984, 399.257 220.026, 398.969 220.043 M400.485 210.205 C398.475 209.671, 397.649 210.449, 395.4 210.086 M400.003 210.094 C398.477 209.992, 396.824 210.169, 394.942 209.769 M400.455 199.823 C397.41 199.811, 396.566 199.972, 391.919 199.581 M399.765 199.935 C397.002 200.375, 394.417 199.838, 392.191 199.88 M398.836 191.096 C394.302 189.143, 392.84 188.998, 382.554 189.175 M399.723 189.86 C394.305 189.65, 391.37 189.845, 384.739 189.299 M395.666 178.342 C391.265 180.113, 386.765 180.847, 373.299 179.568 M396.847 179.826 C388.825 179.257, 381.596 180.2, 375.767 179.692 M392.457 169.825 C380.52 171.589, 371.365 170.093, 363.901 171.021 M390.211 169.701 C380.899 169.181, 371.309 169.502, 361.655 169.563 M383.52 161.959 C374.307 158.305, 363.194 160.735, 341.716 159.569 M384.396 160.362 C369.794 160.898, 353.804 160.461, 343.901 160.346 M375.532 151.286 C362.059 150.979, 353.705 149.089, 321.542 151.742 M375.828 150.043 C359.094 149.289, 341.796 148.906, 321.042 150.404 M362.032 138.25 C330.501 139.911, 300.51 139.586, 259.77 138.93 M361.968 140.596 C323.54 141.258, 284.728 140.905, 257.504 140.918 M248.586 140.769 C239.879 140.986, 229.425 137.929, 218.414 139.471 M247.878 140.652 C240.901 140.902, 235.297 139.86, 216.511 139.124 M344.046 129.27 C303.235 131.851, 262.243 129.725, 216.753 128.187 M342.157 129.051 C294.794 130.957, 246.92 130.232, 216.05 129.487 M321.728 118.751 C295.656 121.749, 265.718 119.376, 216.471 120.124 M321.587 120.76 C296.002 120.306, 271.744 118.58, 216.811 120.495 M257.404 108.96 C255.043 109.582, 252.472 110.346, 246.784 110.625 M257.931 109.479 C254.272 109.529, 250.927 110.499, 246.464 110.526" stroke="#f1c40f" stroke-width="0.5" fill="none"></path></g><g><path d="M246.792 201.374 C236.056 164.428, 226.795 133.226, 218.794 111.851 C216.351 125.49, 220.599 133.44, 213.244 140.868 C230.06 172.906, 239.618 201.231, 248.294 229.679 C253.542 219.472, 253.299 207.651, 248.479 200.133" stroke="none" stroke-width="0" fill="white"></path></g><g><path d="M250.673 197.822 C242.202 169.953, 225.229 144.588, 218.535 110.394 C213.967 126.083, 219.003 132.025, 214.593 144.494 C224.511 165.72, 232.705 181.263, 251.17 227.518 C247.179 221.237, 248.367 216.896, 252.39 196.496" stroke="none" stroke-width="0" fill="rgba(0,0,0,0.1)"></path><path d="M249.699 198.763 C239.241 173.886, 231.523 151.223, 217.042 112.789 M249.188 199.028 C242.344 181.026, 235.762 160.824, 217.618 111.709 M216.47 111.067 C218.832 124.044, 218.114 135.202, 215.915 143.081 M215.81 112.434 C217.71 123.017, 216.22 132.966, 216.695 141.783 M217.337 142.874 C229.332 174.11, 241.913 207.532, 251.151 228.795 M216.261 142.793 C229.889 175.616, 242.112 207.941, 250.684 229.123 M248.591 229.301 C249.953 217.805, 250.593 207.285, 251.162 199.833 M250.47 229.662 C249.79 221.605, 250.631 215.664, 249.193 199.189" stroke="#666" stroke-width="0.5" fill="none"></path></g><g><path d="M250 230 C250 230, 250 230, 250 230 M250 230 C250 230, 250 230, 250 230 M250.371 219.964 C248.799 219.751, 248.236 219.986, 245.614 220.009 M250.03 219.901 C248.77 219.937, 247.461 219.945, 246.09 219.931 M249.322 209.5 C247.374 209.353, 245.189 210.139, 242.345 210.471 M250.381 210.335 C247.829 209.832, 245.454 209.925, 241.772 210.218 M250.078 199.344 C246.174 200.609, 244.566 198.967, 239.909 200.012 M249.508 200.241 C245.514 199.879, 241.509 200.343, 239.287 199.696 M246.637 189.659 C241.447 189.241, 239.642 189.345, 235.434 190.124 M246.107 190.448 C242.453 190.255, 238.274 190.037, 235.423 190.03 M241.579 179.008 C238.671 179.258, 237.818 180.922, 231.023 180.38 M242.025 179.489 C239.763 180.124, 237.58 180.261, 230.954 180.275 M238.869 170.322 C236.664 169.114, 233.593 170.608, 227.92 170.538 M239.344 169.425 C235.536 170.18, 233.377 170.034, 226.972 170.422 M235.568 159.546 C231.896 159.114, 227.344 160.806, 224.005 159.701 M234.644 159.521 C232.851 160.036, 229.936 160.102, 222.79 160.225 M231.744 149.513 C228.074 149.875, 223.973 150.529, 219.74 149.141 M230.648 149.71 C227.029 150.205, 221.704 150.504, 219.563 150.358 M227.942 140.116 C223.088 139.852, 220.796 140.169, 216.559 139.042 M227.347 140.199 C223.582 140.21, 220.031 140.026, 216.668 139.767 M223.599 130.594 C220.683 129.52, 218.252 129.994, 217.406 130.094 M222.733 129.851 C220.791 129.759, 218.397 129.793, 216.955 130.215 M220.067 120.052 C219.092 120.086, 217.86 120.202, 217.17 119.751 M219.851 120.125 C219.389 119.999, 218.54 120.088, 217.097 120.134" stroke="#f1c40f" stroke-width="0.5" fill="none"></path></g><g><path d="M249.493 197.867 C293.533 199.524, 330.376 198.957, 400.434 201.367 C398.654 208.365, 399.399 215.792, 401.097 226.784 C361.869 233.536, 326.926 231.51, 249.769 232.244 C247.549 218.487, 249.579 212.098, 248.861 202.763" stroke="none" stroke-width="0" fill="white"></path></g><g><path d="M246.846 199.951 C281.317 198.037, 316.52 196.358, 396.683 196.568 C399.337 203.521, 397.019 213.11, 399.896 230.603 C346.973 231.171, 297.485 231.486, 252.328 229.8 C252.923 222.534, 252.196 216.548, 250.257 202.947" stroke="none" stroke-width="0" fill="rgba(0,0,0,0.1)"></path><path d="M249.532 199.563 C287.433 198.612, 324.899 201.669, 401.023 199.647 M250.706 199.123 C289.133 201.89, 327.903 202.028, 400.906 200.346 M398.43 199.306 C398.272 210.707, 401.49 220.731, 398.37 231.471 M400.525 199.796 C400.345 206.834, 400.031 213.574, 399.787 229.749 M400.716 229.69 C368.738 228.262, 332.936 228.195, 249.933 228.224 M399.115 229.728 C349.054 230.961, 298.885 231.429, 250.053 229.762 M250.149 231.112 C251.137 220.231, 250.756 209.8, 251.446 200.648 M249.113 230.217 C250.068 220.569, 249.372 212.917, 249.557 199.139" stroke="#666" stroke-width="0.5" fill="none"></path></g><g><path d="M250 230 C250 230, 250 230, 250 230 M250 230 C250 230, 250 230, 250 230 M400.423 219.244 C353.278 221.669, 309.404 221.207, 251.584 220.871 M400.245 219.92 C347.044 220.95, 292.882 221.031, 249.239 220.302 M400.193 210.352 C363.529 210.617, 329.082 208.481, 249.65 209.006 M400.579 210.797 C348.072 208.504, 297.583 209.14, 249.274 210.437 M398.197 200.318 C350.684 200.315, 299.289 198.928, 251.381 199.057 M399.309 199.681 C353.908 200.498, 308.354 199.627, 250.422 200.436" stroke="#f1c40f" stroke-width="0.5" fill="none"></path></g><g><path d="M252.878 200.232 C241.243 178.088, 230.358 149.605, 218.763 109.412 C311.352 99.267, 396.73 144.526, 403.044 202.38 C361.412 200.241, 321.371 199.143, 250.69 202.676" stroke="none" stroke-width="0" fill="white"></path></g><g><path d="M268.372 201.18 C260.544 193.297, 252.616 189.199, 244.474 183.311 M269.899 199.643 C260.31 194.997, 251.315 187.925, 243.316 184.139 M400.998 192.599 C345.104 162.471, 292.091 132.975, 253.226 108.571 M401.383 194.135 C368.148 176.65, 336.488 158.816, 254.019 110.147 M394.079 172.677 C361.603 156.075, 329.476 137.858, 290.005 114.167 M393.822 172.449 C361.84 154.327, 331.308 135.718, 287.661 112.342 M290.045 198.148 C273.957 190.569, 255.852 179.604, 238.109 172.177 M290.33 199.493 C276.496 192.198, 262.316 183.26, 238.135 170.123 M311.189 198.88 C280.41 182.576, 249.837 165.519, 234.851 154.38 M309.459 198.831 C289.834 188.741, 271.101 178.019, 233.886 156.696 M376.363 151.803 C357.786 138.2, 337.923 127.764, 326.947 123.563 M374.897 151.042 C357.472 140.269, 340.408 130.452, 328.325 124.637" stroke="#f1c40f" stroke-width="1.5" fill="none" stroke-opacity="0.4"></path><path d="M390.412 200.453 C347.644 175.989, 305.123 148.965, 233.458 110.645 M389.657 199.681 C352.093 177.709, 312.35 156.304, 234.292 111.543 M350.293 199.654 C310.45 175.522, 270.38 155.874, 222.698 126.482 M349.818 200.543 C322.697 182.825, 293.534 167.491, 222.185 126.554 M386.144 164.626 C365.805 152.094, 346.995 142.333, 304.564 115.94 M388.183 164.318 C371.237 154.818, 354.941 144.552, 303.873 116.857 M319.114 201.777 C292.44 184.148, 268.726 171.593, 229.217 148.845 M318.898 200.864 C285.466 181.471, 252.463 163.071, 231.561 149.19 M299.049 199.397 C287.135 193.447, 270.506 185.088, 237.038 163.008 M299.578 199.353 C280.801 187.879, 262.082 177.769, 235.265 162.944 M261.028 200.327 C254.156 198.267, 251.703 195.129, 246.502 192.734 M259.979 200.547 C256.827 197.499, 251.755 195.058, 246.752 192.511" stroke="#f1c40f" stroke-width="1.5" fill="none" stroke-opacity="0.5"></path><path d="M394.773 179.906 C369.618 164.362, 343.169 148.593, 275.258 113.255 M396.112 180.536 C368.659 162.923, 340.064 146.283, 277.338 112.67 M280.263 199.665 C270.355 193.348, 262.753 187.638, 239.829 179.512 M279.726 199.598 C266.748 191.777, 254.894 185.025, 240.487 178.065 M358.417 201.779 C307.462 167.076, 254.254 135.96, 218.748 119.989 M360.532 199.255 C330.193 183.292, 297.471 165.724, 218.609 118.184 M381.617 200.718 C345.793 177.205, 312.189 158.155, 227.557 109.936 M380.844 200.108 C323.983 168.179, 268.636 135.873, 224.96 110.782 M400.038 201.544 C341.794 169.628, 285.856 133.744, 245.51 110.903 M399.662 199.665 C365.551 178.812, 332.359 160.53, 244.272 109" stroke="#f1c40f" stroke-width="1.5" fill="none" stroke-opacity="0.6"></path><path d="M338.561 199.396 C306.028 178.688, 269.714 159.849, 225.302 133.57 M338.943 198.886 C307.548 182.819, 276.804 163.785, 225.14 133.342 M398.943 186.205 C366.961 171.501, 339.796 153.33, 264.886 110.278 M399.374 187.57 C348.045 159.608, 299.231 132.16, 265.237 110.437 M329.864 201.961 C303.321 185.264, 271.152 167.818, 228.559 141.769 M330.512 200.859 C293.906 181.063, 258.739 161.014, 226.974 141.439 M250.428 200.247 C250.428 200.247, 250.428 200.247, 250.428 200.247 M250.428 200.247 C250.428 200.247, 250.428 200.247, 250.428 200.247 M370.284 199.011 C336.902 183.755, 303.194 162.729, 219.053 110.908 M370.136 200.073 C311.998 167.237, 252.485 132.22, 216.945 111.799" stroke="#f1c40f" stroke-width="1.5" fill="none" stroke-opacity="0.94"></path><path d="M250.037 198.152 C240.246 173.16, 229.276 146.223, 216.338 113.02 M250.11 199.832 C242.246 180.206, 234.596 158.343, 215.802 112.162 M216.622 112.256 C308.593 98.741, 401.226 143.506, 401.892 201.947 M217.649 113.422 C309.353 98.731, 400.981 142.051, 399.561 200.324 M400.702 199.094 C352.517 197.925, 307.427 201.208, 251.156 200.175 M399.473 200.892 C366.544 199.73, 334.023 198.895, 249.388 199.45" stroke="#000" stroke-width="1.5" fill="none"></path></g><text x="310.7902556812265" y="154.26285827562026" text-anchor="middle" dominant-baseline="middle" fill="black" font-family="sans-serif" font-weight="bold" font-size="14px" style="paint-order: stroke; stroke: white; stroke-width: 3px; pointer-events: none;">Py</text><g><path d="M114.855 160.95 C136.513 135.156, 175.504 117.766, 215.866 110.148 C219.874 117.933, 213.14 127.385, 215.317 140.609 C172.205 147.979, 136.245 163.21, 117.348 193.86 C113.669 179.171, 114.886 172.289, 113.933 157.947" stroke="none" stroke-width="0" fill="white"></path></g><g><path d="M114.855 160.95 C134.707 134.242, 173.88 117.796, 214.247 115.167 C216.975 121.395, 219.68 127.937, 214.304 138.98 C174.066 147.65, 133.512 163.888, 113.522 189.919 C117.111 185.346, 112.206 174.626, 115.751 158.012" stroke="none" stroke-width="0" fill="rgba(0,0,0,0.1)"></path><path d="M114.855 160.95 C134.481 136.039, 173.882 116.744, 217.227 114.108 M115.413 162.874 C133.432 136.391, 172.5 117.42, 218.791 110.034 M216.176 111.063 C216.984 121.67, 217.061 131.529, 215.938 141.401 M215.873 113.216 C217.267 120.667, 217.792 129.416, 215.756 142.727 M216.622 142.256 C171.213 149.264, 133.683 165.704, 116.332 190.56 M218.376 140.353 C173.634 148.021, 135.414 166.098, 113.037 190.496 M113.678 191.526 C114.242 180.3, 114.941 171.484, 113.306 160.078 M115.256 191.355 C115.228 184.435, 114.525 178.936, 115.548 161.768" stroke="#666" stroke-width="0.5" fill="none"></path></g><g><path d="M115 190.95 C115 190.95, 115 190.95, 115 190.95 M115 190.95 C115 190.95, 115 190.95, 115 190.95 M125.195 179.952 C123.141 180.85, 120.555 181.057, 114.755 181.904 M125.441 181.359 C121.723 180.467, 119.055 180.835, 114.616 181.386 M137.644 172.274 C128.795 170.676, 125.015 169.478, 114.157 170.314 M136.116 171.625 C130.015 171.598, 121.856 171.657, 115.725 170.997 M151.993 162.352 C138.363 159.744, 122.727 161.162, 113.735 161.8 M153.242 160.98 C139.806 161.172, 127.388 161.5, 115.428 160.305 M176.139 152.827 C165.548 150.817, 150.219 150.66, 124.704 150.967 M177.582 151.164 C161.058 150.272, 144.262 150.963, 124.951 150.535 M216.182 141.838 C195.732 141.309, 177.046 142.086, 137.6 141.592 M217.748 141.586 C186.139 141.497, 155.95 139.878, 136.766 140.051 M218.653 132.664 C202.355 131.543, 187.83 131.007, 151.218 131.763 M217.398 130.073 C199.888 131.482, 181.732 131.334, 153.698 131.31 M217.441 121.073 C200.838 120.521, 188.853 120.361, 177.483 119.275 M217.348 120.034 C209.392 120.757, 199.507 122.044, 177.044 121.289" stroke="#2ecc71" stroke-width="0.5" fill="none"></path></g><g><path d="M250.639 201.408 C200.004 187.3, 145.768 173.56, 116.042 159.716 C117.47 167.548, 116.067 177.328, 112.666 191.451 C161.337 207.292, 215.245 220.562, 251.149 229.859 C249.604 219.875, 247.369 208.098, 247.307 198.521" stroke="none" stroke-width="0" fill="white"></path></g><g><path d="M253.059 199.947 C207.667 189.789, 175.611 178.348, 118.032 158.213 C116.542 172.589, 111.631 184.319, 115.75 189.044 C167.256 201.97, 211.071 214.939, 252.563 226.85 C252.508 218.862, 249.575 210.007, 250.663 200.268" stroke="none" stroke-width="0" fill="rgba(0,0,0,0.1)"></path><path d="M249.639 200.284 C202.196 185.972, 154.518 172.155, 114.719 159.9 M249.411 199.954 C199.518 185.996, 147.01 170.564, 114.129 160.02 M116.558 162.006 C114.64 170.872, 116.983 177.595, 114.188 191.864 M114.712 160.879 C114.297 168.467, 114.074 176.362, 115.502 190.927 M114.057 192.532 C148.314 199.595, 184.214 210.797, 251.584 228.249 M114.357 190.918 C142.769 198.623, 170.44 207.722, 250.241 229.336 M251.994 231.57 C248.955 221.591, 251.425 214.284, 248.423 201.775 M250.906 229.587 C249.804 219.206, 249.325 207.289, 250.425 199.498" stroke="#666" stroke-width="0.5" fill="none"></path></g><g><path d="M250 230 C250 230, 250 230, 250 230 M250 230 C250 230, 250 230, 250 230 M250.115 220.638 C242.848 218.611, 235.348 219.801, 215.018 218.439 M250.224 220.245 C241.832 220.863, 235.107 221.236, 214.628 219.658 M249.558 209.801 C228.39 211.355, 208.788 210.454, 182.736 208.724 M250.883 210.618 C237.054 208.784, 223.013 209.186, 180.38 210.308 M250.036 199.722 C211.401 200.895, 172.08 199.72, 145.058 198.153 M249.326 199.723 C226.874 199.216, 201.552 200.113, 145.679 200.143 M214.6 188.075 C185.586 190.739, 159.197 190.455, 116.896 188.444 M215.567 189.432 C179.153 190.083, 143.646 190.764, 115.826 190.461 M179.56 181.61 C163.017 180.202, 144.23 178.455, 116.983 180.296 M180.567 179.57 C163.872 179.603, 145.645 181.119, 114.23 180.05 M144.045 169.029 C138.82 169.111, 126.486 171.132, 115.238 171.546 M146.95 169.267 C135.332 169.967, 125.367 170.024, 114.83 169.634" stroke="#2ecc71" stroke-width="0.5" fill="none"></path></g><g><path d="M250.777 202.613 C238.989 171.401, 228.345 135.478, 220.071 115.516 C216.523 126.765, 213.552 136.458, 217.169 145.173 C232.075 171.853, 240.61 203.99, 249.903 231.668 C250.56 221.685, 251.157 211.616, 249.178 202.184" stroke="none" stroke-width="0" fill="white"></path></g><g><path d="M252.139 199.836 C241.427 170.576, 229.697 139.955, 215.941 109.031 C214.592 120.42, 213.972 126.991, 215.207 141.105 C227.371 175.698, 241.409 203.911, 253.441 233.015 C246.556 219.052, 251.08 215.352, 251.257 197.95" stroke="none" stroke-width="0" fill="rgba(0,0,0,0.1)"></path><path d="M249.139 200.818 C242.106 178.652, 236.462 158.824, 216.486 112.152 M250.444 199.79 C241.868 179.068, 233.602 156.648, 217.142 111.846 M216.158 112.956 C218.303 121.194, 216.048 127.229, 217.998 142.211 M216.841 111.429 C216.467 122.085, 216.642 132.609, 216.851 143.16 M216.227 144.106 C228.856 178.755, 244.278 210.633, 250.351 228.653 M216.785 142.427 C226.366 165.683, 235.06 189.657, 249.051 229.145 M250.274 230.369 C251.487 218.592, 250.705 210.038, 251.95 198.731 M249.381 229.415 C249.087 221.923, 249.787 213.628, 249.141 200.206" stroke="#666" stroke-width="0.5" fill="none"></path></g><g><path d="M250 230 C250 230, 250 230, 250 230 M250 230 C250 230, 250 230, 250 230 M250.348 220.374 C248.698 220.07, 247.424 220.193, 245.976 219.859 M250.071 219.819 C248.433 219.801, 247.034 220.026, 245.9 220.179 M250.515 209.992 C247.994 209.677, 246.379 209.542, 242.621 210.58 M249.876 209.874 C247.228 209.822, 244.053 209.743, 242.374 209.771 M249.416 200.68 C246.633 200.689, 243.039 199.334, 239.557 199.894 M250.011 200.108 C246.469 199.723, 243.172 200.146, 238.599 200.479 M246.425 190.418 C241.545 189.849, 239.181 189.046, 235.519 189.347 M245.801 190.377 C243.22 189.747, 241.194 189.421, 235.054 190.435 M242.546 181.032 C239.216 179.793, 235.483 180.62, 231.338 180.207 M242.33 180.136 C238.713 179.506, 235.453 180, 231.307 179.596 M239.864 169.456 C234.073 169.8, 230.29 169.045, 225.874 169.297 M239.438 169.495 C234.746 170.553, 229.742 169.479, 226.952 170.465 M235.477 160.156 C231.699 160.359, 227.822 159.686, 221.902 161.086 M235.215 160.568 C230.51 159.845, 226.059 159.65, 223.08 159.974 M232.029 150.934 C227.053 149.288, 222.296 149.866, 220.317 150.653 M230.614 149.922 C227.333 150.621, 222.927 149.663, 220.294 149.485 M226.384 140.913 C224.023 140.854, 219.12 139.012, 217.6 140.701 M227.047 139.534 C224.126 140.305, 220.424 139.923, 217.1 140.304 M223.585 129.742 C220.861 130.316, 218.081 129.475, 217.481 130.515 M222.759 129.944 C221.349 130.296, 219.96 130.228, 216.901 130.089 M219.79 119.745 C219.308 119.783, 218.593 120.253, 217.158 120.26 M220.095 119.869 C219.241 120.116, 218.471 120.028, 217.091 120.037" stroke="#2ecc71" stroke-width="0.5" fill="none"></path></g><g><path d="M252.143 203.51 C223.737 191.62, 193.564 178.964, 118.045 159.813 C136.185 137.538, 169.64 117.846, 214.427 110.735 C227.34 137.35, 238.414 164.105, 252.095 202.272" stroke="none" stroke-width="0" fill="white"></path></g><g><path d="M230.294 146.981 C215.904 139.798, 205.864 133.186, 181.112 120.085 M229.733 146.702 C216.717 138.214, 202.915 130.526, 183.278 118.788 M213.728 187.987 C182.684 170.161, 149.634 155.87, 136.141 143.482 M214.936 189.933 C183.59 170.394, 152.014 152.694, 134.412 144.146 M243.079 176.604 C224.056 164.323, 201.946 152.509, 159.664 129.066 M241.744 175.342 C213.871 159.351, 183.94 144.116, 159.129 128.356 M242.357 183.635 C220.254 172.125, 200.474 156.89, 152.652 131.718 M242.966 183.437 C209.353 163.901, 175.197 145.18, 153.666 131.012 M114.905 160.979 C114.905 160.979, 114.905 160.979, 114.905 160.979 M114.905 160.979 C114.905 160.979, 114.905 160.979, 114.905 160.979" stroke="#2ecc71" stroke-width="1.5" fill="none" stroke-opacity="0.4"></path><path d="M194.242 183.427 C169.8 168.464, 146.523 156.566, 130.803 145.092 M194.719 184.493 C180.61 176.073, 166.498 167.131, 129.987 146.074 M223.56 131.253 C211.908 124.494, 201.017 119.716, 197.733 117.509 M224.175 131.268 C215.248 125.972, 206.61 121.838, 195.877 114.893 M134.397 166.468 C131.934 162.683, 126.465 161.797, 119.355 157.461 M134.557 167.403 C128.232 162.554, 124.14 159.774, 117.937 158.009 M236.013 163.452 C223.099 153.643, 208.248 146.068, 170.474 122.976 M235.53 162.511 C216.401 150.701, 197.545 139.051, 171.373 123.661 M239.505 168.72 C213.82 153.841, 191.466 141.009, 166.832 126.801 M239.36 169.655 C218.355 155.602, 197.404 144.451, 164.656 126.246" stroke="#2ecc71" stroke-width="1.5" fill="none" stroke-opacity="0.5"></path><path d="M218.361 117.114 C217.567 115.848, 215.562 115.28, 211.249 112.941 M219.011 116.705 C216.318 115.637, 214.163 114.176, 211.639 113.123 M222.212 123.827 C216.755 119.641, 209.035 116.536, 203.461 114.236 M222.415 124.175 C216.442 120.682, 210.107 117.825, 203.677 114.654 M235.988 196.432 C202.028 178.179, 170.004 158.25, 140.078 140.544 M233.955 196.46 C200.589 177.13, 166.603 156.216, 138.642 140.017 M156.345 172.673 C141.979 164.08, 130.354 157.624, 122.38 152.675 M155.366 172.886 C148.115 167.96, 141.086 163.857, 121.875 154.81 M251.242 198.308 C208.577 177.196, 165.535 150.051, 142.649 136.936 M250.266 197.771 C211.002 175.99, 172.059 153.417, 144.01 136.798" stroke="#2ecc71" stroke-width="1.5" fill="none" stroke-opacity="0.6"></path><path d="M245.41 192.324 C218.59 173.52, 187.895 157.611, 150.567 135.377 M246.115 190.161 C221.674 176.053, 194.635 161.647, 149.168 133.7 M233.807 155.189 C210.625 142.433, 191.789 128.655, 178.53 120.78 M232.171 153.396 C210.345 140.146, 189.186 128.387, 177.717 122.541 M175.249 180.094 C164.329 172.537, 152.583 166.7, 126.037 150.564 M176.037 177.691 C157.828 168.694, 143.342 159.062, 126.344 150.297 M228.378 138.672 C215.022 132.982, 201.853 124.321, 191.116 119.498 M226.115 138.298 C213.531 131.355, 200.614 124.771, 189.087 117.147" stroke="#2ecc71" stroke-width="1.5" fill="none" stroke-opacity="0.94"></path><path d="M251.712 198.983 C216.221 188.114, 185.995 180.729, 114.203 162.364 M249.78 200.149 C222.352 191.837, 195.392 183.564, 113.91 160.403 M114.855 160.95 C135.718 136.111, 172.243 117.641, 214.851 113.14 M113.652 160.72 C134.066 135.245, 173.669 116.801, 218.208 112.064 M218.496 110.914 C231.172 142.875, 242.037 173.813, 250.066 200.857 M217.223 111.99 C229.599 148.042, 242.321 183.128, 250.181 199.469" stroke="#000" stroke-width="1.5" fill="none"></path></g><text x="189.20974431877346" y="154.26285827562026" text-anchor="middle" dominant-baseline="middle" fill="black" font-family="sans-serif" font-weight="bold" font-size="14px" style="paint-order: stroke; stroke: white; stroke-width: 3px; pointer-events: none;">Go</text><g><path d="M400 200 C399.186 240.734, 352.962 280.329, 280.536 287.656 C282.34 298.139, 284.789 305.763, 284.584 320.893 C350.489 310.497, 402.592 272.95, 401.504 232.657 C398.046 220.189, 401.58 213.611, 398.066 202.314" stroke="none" stroke-width="0" fill="white"></path></g><g><path d="M400 200 C399.147 242.368, 351.505 279.446, 279.979 284.152 C286.343 295.73, 285.91 296.914, 284.843 316.279 C354.634 309.246, 399.204 268.586, 399.648 229.547 C400.604 223.293, 398.801 211.457, 396.96 201.346" stroke="none" stroke-width="0" fill="rgba(0,0,0,0.1)"></path><path d="M400 200 C399.312 241.217, 351.784 279.498, 284.316 286.528 M401.334 199.404 C400.087 242.529, 349.404 276.935, 284.814 285.929 M283.574 288.697 C283.202 294.483, 281.965 303.735, 281.403 315.982 M283.369 288.625 C283.313 296.905, 283.165 305.761, 284.13 317.3 M283.378 317.744 C349.831 308.43, 399.002 270.72, 398.719 229.913 M283.931 318.667 C353.497 310.14, 400.202 270.113, 398.616 228.189 M399.079 231.791 C401.169 224.381, 399.35 215.265, 399.322 199.46 M400.956 229.665 C399.807 222.396, 400.238 213.624, 399.766 199.079" stroke="#666" stroke-width="0.5" fill="none"></path></g><g><path d="M283 317.744 C283 317.744, 283 317.744, 283 317.744 M283 317.744 C283 317.744, 283 317.744, 283 317.744 M321.619 308.733 C313.173 308.165, 303.19 309.062, 281.219 305.781 M321.527 306.756 C307.082 307.971, 293.728 306.558, 282.018 307.276 M346.924 299.141 C324.994 297.385, 305.55 299.32, 284.997 299.289 M346.846 297.187 C328.663 296.365, 311.768 298.299, 282.525 296.948 M362.902 287.054 C333.654 289.586, 305.052 288.145, 284.369 288.038 M362.892 286.936 C331.753 287.294, 301.091 287.735, 282.304 288.142 M375.249 278.743 C358.51 277.589, 346.038 277.484, 322.399 275.809 M374.179 277.8 C363.818 277.84, 354.517 278.957, 324.228 278.117 M385.938 267.114 C374.176 267.356, 359.797 267.485, 346.401 268.647 M385.134 267.325 C377.726 267.923, 370.119 268.357, 348.506 267.721 M392.097 257.636 C381.838 258.604, 372.909 257.594, 362.871 256.345 M391.454 257.628 C385.602 258.012, 378.054 258.698, 363.522 257.704 M398.022 247.453 C387.877 248.135, 379.953 249.591, 376.658 246.331 M396.079 248.602 C390.172 248.226, 385.676 248.856, 375.645 248.215 M398.431 238.735 C394.166 237.537, 389.982 237.173, 386.724 236.996 M398.584 238.036 C395.045 238.061, 392.605 237.816, 385.902 237.524 M400.392 227.477 C396.208 227.99, 393.817 228.009, 392.527 228.18 M399.859 228.055 C397.281 227.813, 393.551 227.947, 391.632 227.503 M399.852 217.575 C399.206 218.029, 397.854 217.625, 397.239 217.575 M399.924 217.628 C399.315 217.607, 398.426 217.771, 397.141 217.843 M400.004 207.761 C399.765 207.811, 399.475 207.819, 398.926 207.822 M400.024 207.74 C399.607 207.694, 399.273 207.776, 399.039 207.729" stroke="#e74c3c" stroke-width="0.5" fill="none"></path></g><g><path d="M250.602 198.931 C296.648 198.084, 348.455 198.139, 400.135 201.845 C402.296 208.793, 400.274 222.456, 396.861 232.978 C348.746 229.563, 296.553 230.139, 252.866 232.276 C252.416 220.819, 249.552 209.528, 249.413 201.738" stroke="none" stroke-width="0" fill="white"></path></g><g><path d="M248.506 196.526 C304.828 197.359, 359.558 199.81, 400.189 200.493 C402.868 211.747, 399.476 221.225, 398.901 231.365 C341.628 232.239, 289.752 235.476, 252.798 229.317 C252.846 220.409, 246.624 210.901, 248.021 197.121" stroke="none" stroke-width="0" fill="rgba(0,0,0,0.1)"></path><path d="M248.959 201.879 C307.333 200.238, 362.678 199.15, 400.057 199.935 M250.688 200.163 C304.526 200.507, 359.357 198.925, 400.92 200.365 M400.963 200.236 C399.965 206.601, 398.851 215.512, 401.419 229.158 M399.896 199.014 C400.565 211.848, 399.288 223.798, 400.582 230.248 M401.143 231.525 C351.386 232.465, 301.749 230.018, 249.382 230.577 M400.046 229.087 C345.733 229.275, 294.029 229.117, 249.244 230.838 M251.037 231.897 C250.195 221.085, 250.215 212.999, 250.147 199.919 M250.172 229.433 C250.023 219.982, 250.075 210.915, 250.963 199.421" stroke="#666" stroke-width="0.5" fill="none"></path></g><g><path d="M250 230 C250 230, 250 230, 250 230 M250 230 C250 230, 250 230, 250 230 M400.36 219.105 C349.741 218.991, 299.917 220.828, 250.277 218.829 M400.765 220.316 C368.347 219.427, 335.549 219.266, 249.282 219.781 M398.272 208.161 C361.773 212.547, 323.681 212.072, 250.97 209.034 M399.396 210.713 C352.815 209.842, 306.367 210.02, 249.534 209.44 M399.147 199.048 C371.026 200.143, 339.847 200.068, 251.36 200.891 M399.944 200.79 C350.148 200.541, 302.832 199.315, 249.59 199.667" stroke="#e74c3c" stroke-width="0.5" fill="none"></path></g><g><path d="M252.254 197.508 C258.146 220.727, 268.982 239.946, 284.353 288.138 C281.347 299.843, 284.352 305.908, 286.117 319.297 C269.513 286.725, 255.104 249.069, 246.932 231.03 C251.309 220.675, 252.461 207.519, 252.124 202.398" stroke="none" stroke-width="0" fill="white"></path></g><g><path d="M248.465 200.294 C261.89 217.832, 265.425 242.366, 284.371 286.681 C283.13 293.601, 281.198 307.17, 280.448 317.704 C275.938 294.16, 262.884 265.194, 248.91 227.617 C247.323 221.954, 249.612 217.734, 253.6 199.877" stroke="none" stroke-width="0" fill="rgba(0,0,0,0.1)"></path><path d="M248.939 198.134 C258.264 219.425, 264.012 234.713, 284.643 287.765 M250.596 199.453 C260.044 226.05, 269.082 251.258, 284.062 286.768 M283.391 288.385 C281.744 295.048, 284.164 305.756, 284.802 318.717 M283.239 287.267 C283.695 295.538, 284.422 304.251, 284.227 317.133 M285.192 316.652 C276.37 295.852, 264.987 269.424, 249.833 228.558 M283.425 318.525 C275.086 295.356, 266.352 273.658, 250.875 229.606 M249.113 231.601 C248.891 224.935, 249.467 216.092, 251.727 199.494 M249.628 229.806 C249.804 223.037, 250.148 216.606, 250.546 200.926" stroke="#666" stroke-width="0.5" fill="none"></path></g><g><path d="M283 317.744 C283 317.744, 283 317.744, 283 317.744 M283 317.744 C283 317.744, 283 317.744, 283 317.744 M282.988 307.973 C281.748 307.964, 280.812 307.525, 280.285 307.47 M283.027 307.872 C282.065 307.851, 281.208 307.894, 279.907 307.658 M282.903 297.073 C279.708 297.835, 277.64 297.828, 275.7 298.104 M282.658 297.514 C281.005 297.437, 278.959 298.018, 276.169 297.77 M282.212 287.588 C279.324 288.331, 277.716 287.135, 271.79 288.723 M283.467 287.969 C279.905 287.727, 276.629 287.676, 272.372 287.823 M280.431 276.765 C277.435 277.457, 272.125 277.874, 268.746 278.712 M280.263 277.184 C275.736 277.476, 272.533 277.116, 268.084 277.731 M276.732 266.751 C272.507 267.983, 266.623 266.935, 264.037 268.878 M275.517 267.461 C271.728 267.307, 267.568 267.432, 264.457 267.737 M271.073 258.536 C267.501 256.719, 264.971 257.147, 260.539 258.815 M271.506 257.584 C268.576 257.26, 266.457 257.541, 260.836 257.361 M268.779 248.71 C263.434 247.403, 260.21 246.815, 257.46 248.678 M267.797 247.881 C265.022 247.651, 261.619 247.496, 257.257 247.27 M263.831 236.82 C260.767 238.392, 257.375 236.985, 252.992 237.327 M263.881 238.239 C261.664 238.112, 259.196 237.988, 252.491 237.231 M260.784 227.887 C258.198 228.325, 253.41 228.465, 250.628 227.263 M260.541 228.032 C256.755 227.728, 253.305 228.04, 249.759 227.497 M257.463 218.118 C254.707 217.146, 251.165 217.925, 249.31 218.336 M257.344 217.996 C254.85 217.525, 252.936 218.06, 250.193 217.855 M252.766 207.448 C252.228 207.719, 250.936 207.998, 250.167 207.817 M252.977 207.705 C252.317 207.62, 251.671 207.876, 250.037 207.813" stroke="#e74c3c" stroke-width="0.5" fill="none"></path></g><g><path d="M250.145 198.235 C280.636 198.361, 310.199 201.811, 398.021 201.309 C399.824 242.405, 354.704 280.032, 286.302 284.738 C273.037 268.539, 263.967 241.583, 250.827 202.819" stroke="none" stroke-width="0" fill="white"></path></g><g><path d="M300.246 284.942 C291.056 279.308, 284.945 275.712, 277.885 271.66 M299.269 284.834 C291.585 279.921, 283.506 276.813, 276.97 272.996 M373.244 249.153 C350.783 233.992, 326.457 222.529, 289.477 199.839 M374.804 249.061 C350.216 235.474, 325.17 220.844, 290.046 200.256 M399.58 204.989 C395.81 203.436, 393.152 200.554, 390.604 200.491 M399.605 204.941 C397.009 203.746, 394.669 202.299, 390.503 199.4 M381.226 240.684 C355.5 223.652, 330.972 209.524, 310.764 201.128 M383.092 240.22 C364.36 231.1, 344.092 218.253, 309.591 200.095 M362.299 259.2 C331.522 240.197, 301.289 222.146, 262.143 198.471 M363.313 258.214 C327.118 237.111, 289.337 216.212, 260.445 199.273 M348.653 268.328 C316.512 248.888, 280.166 228.382, 255.841 214.942 M349.782 266.95 C322.655 253.167, 298.085 240.045, 255.294 214.722 M311.304 282.065 C299.603 275.624, 290.376 270.062, 271.839 259.849 M311.558 281.321 C302.902 276.078, 293.867 269.755, 272.434 257.832" stroke="#e74c3c" stroke-width="1.5" fill="none" stroke-opacity="0.4"></path><path d="M358.749 261.976 C326.517 243.564, 293.426 223.534, 251.713 201.628 M357.788 261.112 C333.545 247.72, 309.572 232.576, 250.757 198.83 M368.386 256.919 C337.724 237.27, 310.928 222.377, 269.807 197.876 M368.447 256.166 C331.493 233.848, 296.897 213.772, 270.353 198.711 M396.995 214.765 C386.476 207.836, 377.662 202.487, 369.663 198.184 M397.639 215.374 C390.981 210.017, 383.404 205.979, 370.326 199.799 M379.278 245.766 C354.483 231.426, 331.468 218.436, 299.703 199.822 M378.795 244.221 C351.252 228.371, 322.476 212.403, 300.626 199.013 M387.716 233.446 C365.767 218.755, 344.086 206.779, 331.554 199.776 M388.803 233.598 C368.192 221.608, 345.74 207.996, 330.262 198.874 M331.787 275.165 C317.418 267.275, 303.245 257.327, 264.733 237.613 M331.13 275.477 C309.216 263.699, 287.132 250.728, 263.237 236.164 M317.529 280.156 C307.844 272.008, 295.413 264.426, 269.126 250.832 M318.873 279.92 C300.587 268.189, 282.536 257.64, 270.158 251.453" stroke="#e74c3c" stroke-width="1.5" fill="none" stroke-opacity="0.5"></path><path d="M342.963 268.27 C324.446 260.922, 306.24 247.079, 256.967 222.273 M342.259 270.717 C322.662 259.081, 301.719 245.79, 257.468 221.019 M397.003 208.963 C395.475 205.987, 386.942 202.49, 381.374 200.685 M397.573 210.225 C392.178 206.926, 387.021 204.374, 379.282 199.716 M335.179 271.765 C316.39 259.131, 290.299 245.444, 260.465 227.187 M336.812 273.053 C306.505 253.601, 276.414 236.932, 260.989 229.136 M283.132 287.601 C283.132 287.601, 283.132 287.601, 283.132 287.601 M283.132 287.601 C283.132 287.601, 283.132 287.601, 283.132 287.601 M395.718 218.896 C383.435 211.43, 371.09 206.292, 360.802 198.24 M396.127 219.312 C385.321 213.991, 372.768 206.429, 361.074 200.202 M384.688 238.235 C367.734 228.221, 350.3 220.121, 318.779 198.4 M386.934 237.084 C373.579 228.456, 358.847 222.393, 321.167 199.17 M291.296 286.72 C286.586 283.084, 283.412 281.37, 281.056 279.138 M290.383 286.452 C287.538 284.613, 285.19 282.911, 281.001 280.028" stroke="#e74c3c" stroke-width="1.5" fill="none" stroke-opacity="0.6"></path><path d="M393.414 230.758 C380.64 220.771, 368.089 214.505, 340.568 199.206 M392.188 229.603 C377.746 221.449, 364.969 213.257, 339.825 198.877 M354.281 264.424 C317.03 239.865, 276.332 218.27, 253.177 205.362 M353.165 265.336 C320.372 243.881, 284.736 224.812, 252.702 205.496 M305.744 285.203 C297.589 276.85, 288.123 271.024, 275.328 265.903 M306.313 283.168 C299.174 279.154, 292.775 276.625, 274.219 265.21 M391.75 223.245 C380.21 216.163, 366.839 210.898, 348.474 197.798 M394.097 223.516 C383.08 218.224, 372.323 211.955, 349.406 198.45 M371.721 253.019 C344.691 235.856, 315.922 222.879, 279.337 198.836 M371.414 252.394 C345.744 237.671, 321.273 223.28, 279.44 198.242 M324.508 275.843 C308.838 269.498, 298.435 261.531, 266.579 244.331 M324.508 276.897 C306.697 266.857, 288.444 255.783, 265.955 242.324" stroke="#e74c3c" stroke-width="1.5" fill="none" stroke-opacity="0.94"></path><path d="M251.06 198.561 C286.291 199.844, 322.092 201.924, 401.093 200.281 M249.173 200.208 C304.901 200.67, 361.4 199.597, 399.405 200.913 M400 200 C401.102 242.099, 350.386 277.159, 283.581 286.687 M401.74 199.803 C398.668 243.238, 351.754 280.358, 283.487 289.309 M284.458 288.315 C273.515 256.802, 259.408 225.632, 250.98 201.652 M283.542 288.146 C275.735 266.64, 267.434 244.967, 250.625 199.8" stroke="#000" stroke-width="1.5" fill="none"></path></g><text x="326.2285695406329" y="236.4741534087359" text-anchor="middle" dominant-baseline="middle" fill="black" font-family="sans-serif" font-weight="bold" font-size="14px" style="paint-order: stroke; stroke: white; stroke-width: 3px; pointer-events: none;">PHP</text><g><path d="M267.742 295.225 C156.074 308.756, 60.28 248.046, 88.901 177.541 C95.184 178.337, 97.029 172.75, 98.88 170.217 C99.261 181.328, 102.573 184.919, 95.9 200.625 C47.543 261.416, 132.682 334.872, 248.292 329.113 C251.33 327.472, 260.152 323.18, 270.675 323.646 C264.937 318.069, 264.726 315.155, 267.475 298.318" stroke="none" stroke-width="0" fill="white"></path></g><g><path d="M267.742 295.225 C151.597 314.032, 58.8 247.319, 89.727 178.037 C94.243 179.762, 95.397 172.96, 96.732 171.341 C97.326 175.19, 99.796 184.162, 98.163 198.038 C50.072 257.286, 130.091 334.004, 243.429 329.141 C255.407 324.082, 263.608 326.979, 264.901 323.468 C269.982 313.075, 267.979 299.633, 267.528 293.384" stroke="none" stroke-width="0" fill="rgba(0,0,0,0.1)"></path><path d="M267.742 295.225 C154.321 311.121, 55.689 245.576, 92.823 179.909 M268.88 295.945 C156.281 312.89, 55.11 246.347, 90.353 180.918 M91.027 180.954 C92.212 177.69, 94.823 174.055, 98.567 169.662 M92.475 182.225 C95.423 175.569, 97.369 173.361, 98.97 169.279 M101.079 169.008 C100.79 176.605, 97.937 187.546, 98.02 197.317 M99.994 168.164 C99.244 177.516, 99.664 187.781, 99.796 198.658 M99.218 198.432 C47.763 259.36, 130.667 330.643, 244.669 326.945 M98.922 197.557 C48.145 259.358, 129.716 331.151, 243.906 329.453 M245.573 327.23 C253.73 328.27, 259.947 326.845, 268.649 325.785 M246.519 328.98 C251.911 327.77, 261.954 327.431, 266.601 325.728 M266.387 324.586 C267.434 314.728, 268.927 303.821, 266.652 295.526 M267.351 326.22 C267.253 319.415, 267.896 311.039, 266.878 294.763" stroke="#666" stroke-width="0.5" fill="none"></path></g><g><path d="M224 327.323 C224 327.323, 224 327.323, 224 327.323 M224 327.323 C224 327.323, 224 327.323, 224 327.323 M266.831 316.666 C239.72 317.685, 207.491 316.59, 169.043 317.435 M268.705 316.695 C247.83 317.747, 226.636 317.715, 167.168 317.22 M267.295 308.539 C238.709 306.383, 206.992 306.675, 144.941 308.529 M268.972 307.015 C231.282 305.485, 193.408 306.693, 143.983 306.455 M268.939 298.357 C251.778 297.53, 233.53 297.24, 224.8 295.908 M268.904 296.689 C255.98 296.77, 245.696 298.292, 225.994 297.147 M226.668 297.123 C194.882 297.172, 165.593 299.197, 124.364 298.297 M226.714 296.88 C201.178 296.924, 176.186 298.276, 124.827 298.015 M171.399 286.371 C154.986 286.63, 142.749 289.164, 109.922 286.272 M170.837 286.68 C154.661 287.517, 141.183 287.551, 111.871 287.479 M140.7 277.324 C124.223 275.646, 110.708 277.343, 101.695 276.801 M141.814 277.064 C133.252 277.554, 123.316 276.411, 100.731 277.308 M121.756 268.684 C113.403 268.923, 105.962 268.212, 94.611 267.309 M123.162 267.809 C115.533 266.139, 110.247 267.662, 94.889 267.968 M109.886 259.115 C103.585 258.64, 93.076 257.85, 89.452 255.58 M111.608 257.632 C104.542 257.09, 96.091 256.954, 88.323 256.49 M100.358 246.245 C94.909 247.623, 88.626 247.288, 86.151 246.718 M100.612 246.63 C96.679 246.585, 92.654 247.654, 85.936 247.321 M92.823 237.478 C90.23 236.997, 88.738 236.496, 84.671 237.665 M93.077 236.947 C89.517 237.605, 86.682 237.634, 84.991 237.3 M88.129 227.197 C87.198 227.557, 86.054 227.121, 84.806 227.369 M87.853 227.388 C87.222 227.328, 86.014 227.411, 85.117 227.321 M87.827 217.303 C87.392 217.211, 87.333 217.412, 86.018 217.408 M88.017 217.28 C87.266 217.367, 86.727 217.252, 85.907 217.376 M93.554 207.737 C89.985 206.648, 86.403 206.57, 83.227 207.878 M92.776 206.894 C89.822 207.056, 85.954 207.186, 84.051 207.191 M100.275 197.601 C92.537 197.583, 87.377 197.548, 85.597 196.941 M99.29 197.549 C94.181 197.25, 89.872 196.973, 84.522 198.011 M97.984 187.882 C96.68 188.168, 94.494 187.014, 87.854 186.735 M98.904 187.456 C96.565 187.532, 94.943 186.73, 87.735 187.139 M98.944 177.165 C96.207 177.748, 94.797 177.881, 92.823 177.065 M99.191 177.078 C97.756 177.315, 96.282 177.21, 93.297 177.268" stroke="#3498db" stroke-width="0.5" fill="none"></path></g><g><path d="M231.192 205.867 C246.336 237.209, 256.009 263.581, 264.631 296.479 C267.503 303.163, 264.711 308.101, 270.834 324.454 C257.303 291.183, 240.222 260.418, 236.73 237.755 C236.023 228.86, 231.108 216.406, 234.967 205.854" stroke="none" stroke-width="0" fill="white"></path></g><g><path d="M235.48 210.098 C246.5 240.274, 259.811 268.401, 264.335 291.69 C269.867 304.569, 269.948 314.606, 267.721 328.317 C255.651 292.575, 239.674 254.648, 231.973 238.965 C236.222 225.555, 236.893 221.312, 236.272 208.192" stroke="none" stroke-width="0" fill="rgba(0,0,0,0.1)"></path><path d="M236.253 205.504 C243.277 236.281, 254.684 265.327, 268.029 297 M235.07 207.22 C242.087 228.637, 248.922 248.618, 268.698 295.406 M269.544 293.946 C266.983 304.938, 269.463 315.104, 267.033 326.141 M268.286 294.618 C267.966 303.805, 267.957 310.508, 266.977 325.359 M267.581 327.118 C256.911 289.951, 243.182 259.982, 236.133 237.419 M267.371 324.772 C255.862 294.943, 243.92 264.1, 233.573 238.329 M236.104 236.75 C235.12 225.989, 235.043 216.996, 233.058 207.313 M235.134 238.367 C234.898 229.784, 233.716 223.283, 233.687 207.224" stroke="#666" stroke-width="0.5" fill="none"></path></g><g><path d="M268 325.225 C268 325.225, 268 325.225, 268 325.225 M268 325.225 C268 325.225, 268 325.225, 268 325.225 M267.989 315.108 C266.404 315.473, 265.008 315.247, 264.397 315.106 M268.198 315.195 C266.661 315.181, 265.054 315.3, 264.124 315.07 M267.441 304.875 C265.853 305.329, 262.357 305.744, 259.295 305.146 M268.145 305.279 C265.199 305.284, 262.889 305.215, 260.101 305.038 M269.01 294.726 C266.391 295.55, 262.714 294.553, 255.185 295.07 M268.525 295.596 C263.615 295.291, 258.899 295.165, 256.25 295.09 M264.513 285.795 C259.548 285.206, 256.609 285.117, 251.935 284.624 M264.014 285.438 C261.038 284.783, 259.23 285.245, 252.69 285.662 M260.127 276.143 C257.578 275.255, 254.238 275.91, 249.214 274.691 M260.35 274.896 C255.742 274.732, 251.777 275.564, 248.484 275.053 M255.389 265.269 C253.842 265.517, 248.792 265.836, 244.954 266.295 M255.811 265.164 C253.687 264.617, 251.579 265.223, 244.571 265.385 M252.505 255.418 C248.676 255.826, 246.057 255.349, 240.479 254.696 M252.893 254.768 C248.678 255.265, 243.878 255.249, 241.473 255.623 M248.033 244.796 C245.142 244.084, 239.256 246.431, 236.005 244.152 M249.498 244.818 C245.117 245.72, 242.491 244.61, 236.453 244.768 M244.564 235.131 C240.885 235.776, 236.803 234.825, 233.642 234.199 M245.389 235.134 C241.875 235.327, 238.923 235.622, 233.463 235.475 M241.216 225.52 C239.583 225.187, 237.51 225.79, 234.686 225.497 M240.946 225.265 C239.477 225.447, 237.815 225.075, 233.719 225.035 M236.761 215.44 C236.09 215.319, 235.127 215.347, 234.28 215.294 M237.017 215.324 C236.275 215.21, 235.732 215.263, 233.866 215.154" stroke="#3498db" stroke-width="0.5" fill="none"></path></g><g><path d="M232.8 209.687 C207.605 195.872, 182.794 187.545, 101.899 169.035 C101.17 179.079, 97.028 185.963, 98.54 201.685 C146.245 208.081, 184 221.946, 237.324 240.876 C231.013 229.777, 231.639 220.073, 237.052 209.128" stroke="none" stroke-width="0" fill="white"></path></g><g><path d="M237.643 208.015 C196.158 193.579, 153.119 184.941, 102.644 169.735 C102.862 173.941, 102.165 179.292, 99.117 196.81 C133.336 208.918, 167.235 221.202, 231.993 240.894 C233.858 225.982, 236.197 213.975, 233.18 208.799" stroke="none" stroke-width="0" fill="rgba(0,0,0,0.1)"></path><path d="M234.101 209.012 C205.769 198.851, 177.353 192.09, 99.805 170.289 M233.494 207.699 C206.238 199.112, 176.729 190.276, 99.043 169.282 M99.37 170.191 C98.972 173.465, 99.723 180.138, 97.96 197.608 M99.906 168.021 C99.519 176.372, 99.13 183.368, 98.946 198.026 M101.114 197.742 C127.426 205.016, 156.743 215.315, 233.877 239.27 M99.939 197.998 C136.748 210.109, 172.547 220.949, 233.858 236.673 M235.631 235.645 C233.42 228.866, 235.707 220.453, 233.706 209.054 M234.511 238.397 C233.745 230.508, 234.407 223.965, 233.67 206.507" stroke="#666" stroke-width="0.5" fill="none"></path></g><g><path d="M234 237.482 C234 237.482, 234 237.482, 234 237.482 M234 237.482 C234 237.482, 234 237.482, 234 237.482 M232.714 228.02 C222.563 226.684, 215.323 226.891, 199.053 228.813 M233.512 228.447 C226.221 226.297, 220.123 226.93, 200.917 227.345 M234.125 217.977 C214.184 218.8, 197.279 219.145, 166.359 218.252 M234.867 217.902 C221.132 216.871, 206.857 218.446, 164.176 217.018 M234.16 205.856 C210.403 209.198, 188.177 207.597, 131.926 207.116 M233.208 206.824 C205.293 208.555, 176.646 207.13, 131.557 208.343 M201.24 195.755 C178.559 196.021, 156.874 196.017, 99.522 198.884 M200.711 196.834 C163.318 196.736, 128.118 196.707, 98.69 197.4 M163.979 187.407 C148.671 188.398, 127.75 186.059, 100.461 186.212 M165.586 186.753 C140.726 186.36, 116.542 187.716, 99.057 188.137 M131.274 179.098 C123.455 178.315, 112.576 179.515, 100.356 178.458 M130.106 178.476 C120.53 176.941, 109.006 176.398, 99.272 176.545" stroke="#3498db" stroke-width="0.5" fill="none"></path></g><g><path d="M231.885 207.727 C250.067 239.256, 260.983 270.145, 266.148 296.126 C151.863 313.977, 53.418 245.244, 91.132 179.434 C96.697 177.833, 99.413 169.183, 100.794 171.496 C139.577 184.936, 184.369 193.205, 235.135 208.729" stroke="none" stroke-width="0" fill="white"></path></g><g><path d="M244.11 298.463 C184.608 264.662, 130.009 232.524, 86.582 204.745 M242.825 296.248 C199.707 272.852, 156.899 248.649, 84.241 204.517 M223.092 297.842 C180.376 270.075, 137.234 247.321, 84.497 217.186 M222.006 295.865 C174.483 267.705, 125.324 241.048, 85.403 218.159 M138.223 276.591 C138.223 276.591, 138.223 276.591, 138.223 276.591 M138.223 276.591 C138.223 276.591, 138.223 276.591, 138.223 276.591 M243.133 226.786 C222.921 215.082, 205.691 204.485, 178.367 188.837 M242.563 226.711 C220.772 213.829, 200.867 203.201, 180.125 191.798 M258.051 262.121 C194.468 227.494, 133.55 192.368, 97.083 172.44 M256.206 264.291 C222.604 246.031, 188.841 226.898, 97.113 172.892 M210.62 296.032 C170.121 273.058, 128.157 247.154, 84.829 222.361 M211.315 294.95 C182.855 278.364, 153.993 260.952, 86.307 224.299" stroke="#3498db" stroke-width="1.5" fill="none" stroke-opacity="0.4"></path><path d="M263.752 276.811 C222.01 252.387, 180.806 231.608, 93.207 180.94 M261.734 278.286 C227.817 258.873, 193.054 238.648, 91.013 180.152 M246.745 240.556 C225.109 229.346, 204.359 214.386, 141.922 179.952 M247.544 241.795 C225.209 229.188, 202.183 216.539, 139.89 179.999 M236.191 213.916 C232.284 209.773, 229.388 208.047, 219.148 203.418 M236.293 213.025 C230.936 207.619, 224.425 204.904, 220.205 202.929 M169.208 287.919 C143.941 272.612, 120.805 258.675, 103.546 250.916 M167.481 287.322 C151.368 279.102, 135.143 270.244, 104.859 251.491 M180.821 288.56 C162.787 280.143, 144.272 266.325, 95.09 240.354 M182.763 290.428 C158.201 277.411, 134.667 263.467, 96.821 239.96 M243.868 232.628 C217.167 218.487, 191.343 203.561, 159.354 185.834 M243.875 234.802 C225.73 223.274, 206.607 212.099, 160.311 184.159" stroke="#3498db" stroke-width="1.5" fill="none" stroke-opacity="0.5"></path><path d="M196.645 292.128 C161.083 271.935, 125.238 250.713, 91.042 230.949 M197.806 292.861 C160.045 272.457, 124.148 252.583, 89.803 231.87 M257.808 269.71 C197.667 235.774, 134.7 196.766, 94.472 176.175 M259.578 270.798 C218.706 247.994, 177.155 224.161, 94.13 176.927 M239.84 220.913 C231.663 212.324, 219.614 208.308, 200.219 195.341 M240.118 220.469 C229.087 212.917, 219.012 207.405, 200.167 195.624 M260.397 296.731 C211.605 268.592, 164.289 242.107, 86.069 195.632 M260.677 295.317 C213.759 267.268, 167.573 240.008, 85.992 195.415 M263.314 286.131 C206.157 248.692, 143.736 215.155, 89.183 185.618 M264.533 286.197 C196.375 247.498, 129.221 207.238, 90.188 185.259" stroke="#3498db" stroke-width="1.5" fill="none" stroke-opacity="0.6"></path><path d="M232.249 297.035 C178.939 265.206, 124.465 234.273, 86.797 213.236 M232.174 296.714 C176.886 265.296, 120.666 232.266, 85.087 211.005 M250.855 246.988 C218.341 230.034, 186.36 214.762, 118.894 174.987 M250.548 249.771 C201.851 220.934, 152.514 193.752, 118.67 173.973 M267.049 293.192 C207.838 259.685, 146.336 224.098, 87.401 189.285 M266.875 294.077 C223.059 268.091, 178.874 243.717, 87.784 189.569 M252.788 258.128 C196.428 224.699, 137.264 188.545, 98.022 167.482 M254.454 257.335 C208.333 230.697, 162.09 204.914, 98.749 166.932 M253.238 295.913 C209.954 270.008, 166.781 246.587, 86.487 197.998 M252.438 295.676 C192.31 263.496, 133.722 229.434, 85.85 200.487" stroke="#3498db" stroke-width="1.5" fill="none" stroke-opacity="0.94"></path><path d="M233.061 206.823 C247.52 240.09, 259.844 271.197, 266.13 293.31 M233.902 208.022 C245.162 235.921, 256.52 265.61, 268.22 295.905 M267.742 295.225 C154.643 311.283, 57.069 248.616, 92.015 181.492 M268.874 294.34 C157.328 312.77, 56.5 249.227, 92.402 181.886 M91.027 180.954 C94.716 177.792, 95.528 172.055, 98.211 168.009 M92.915 182.881 C91.514 178.873, 98.244 172.035, 99.777 170.528 M98.789 169.95 C132.342 175.582, 165.045 187.809, 232.421 209.307 M98.297 168.035 C134.763 179.145, 168.993 190.114, 233.884 207.8" stroke="#000" stroke-width="1.5" fill="none"></path></g><text x="158.1348008100065" y="243.9560310310407" text-anchor="middle" dominant-baseline="middle" fill="black" font-family="sans-serif" font-weight="bold" font-size="14px" style="paint-order: stroke; stroke: white; stroke-width: 3px; pointer-events: none;">TS</text>
</svg>
