<svg width="800" height="800" xmlns="http://www.w3.org/2000/svg">
  <rect width="100%" height="100%" fill="white" />
  <g><path d="M50.299 11.773 L149.293 8.655 L198.37 101.862 L150.098 189.486 L50.578 190.353 L10.097 98.243 Z" stroke="none" stroke-width="0" fill="red" fill-rule="evenodd"></path><path d="M48.513 9.354 C85.513 9.956, 116.207 11.154, 149.957 11.263 M50.211 9.556 C77.502 10.197, 106.437 10.884, 149.43 10.949 M150.976 10.294 C163.546 35.803, 175.478 58.296, 199.514 101.323 M149.682 10.463 C167.223 40.727, 184.227 68.835, 199.732 99.348 M198.183 100.436 C180.576 136.892, 159.434 171.933, 151.095 190.48 M200.961 99.286 C186.093 124.639, 172.438 148.624, 150.381 190.273 M151.461 188.482 C127.076 190.459, 107.14 190.045, 49.155 189.154 M150.451 189.527 C128.293 190.955, 106.856 189.938, 50.491 189.438 M50.434 188.798 C38.501 168.428, 30.599 142.604, 11.281 98.728 M50.695 190.776 C39.733 169.072, 31.036 149.532, 9.374 99.294 M9.708 100.369 C25.253 65.664, 40.321 30.909, 51.656 11.473 M10.221 100.539 C25.477 66.642, 38.379 34.246, 50.432 9.595" stroke="black" stroke-width="2" fill="none"></path></g><g><path d="M80 80 C78.569 107.769, 100.456 121.877, 124.006 127.813 C127.844 110.533, 122.055 99.985, 123.576 82.547 C114.936 79.606, 96.7 80.587, 81.137 82.217 Z" stroke="none" stroke-width="0" fill="green"></path><path d="M80 80 C81.297 105.339, 100.6 125.203, 126.091 124.824 M81.055 79.867 C77.902 104.179, 98.768 124.085, 125.996 124.805 M123.453 124.989 C123.304 115.198, 126.022 106.333, 124.093 78.195 M124.796 125.64 C125.15 115.762, 125.959 106.711, 125.867 79.188 M126.638 80.125 C115.056 80.032, 105.764 79.173, 78.627 78.067 M125.337 80.414 C115.092 80.383, 106.304 79.723, 80.356 80.139" stroke="#000" stroke-width="1" fill="none"></path></g><g><path d="M230 80 C191.965 80.383, 174.982 118.763, 189.078 145.489 C205.591 173.941, 249.595 179.744, 272.374 146.621 C270.169 138.295, 277.783 133.057, 274.453 126.854 C275.199 113.837, 275.536 102.104, 276.786 76.541 C262.114 82.366, 243.114 77.596, 233.423 80.619 Z" stroke="none" stroke-width="0" fill="purple"></path><path d="M230 80 C197.33 79.516, 172.857 116.462, 190.137 146.361 M229.981 81.347 C195.377 77.73, 175.639 117.405, 193.221 149.689 M191.029 147.5 C209.611 179.418, 251.118 178.332, 269.476 147.973 M192.018 149.16 C208.45 177.596, 252.906 178.499, 267.832 149.211 M268.971 147.5 C270.926 139.385, 274.486 133.401, 274.603 125.189 M269.978 146.38 C271.494 141.528, 276.434 131.632, 277.128 127.23 M276.132 126.214 C276.114 111.781, 275.182 97.883, 276.388 79.841 M274.904 124.83 C275.914 109.885, 275.304 94.279, 275.54 80.958 M273.568 79.154 C259.642 79.003, 245.651 80.582, 228.038 80.701 M274.281 80.661 C259.783 80.513, 245.877 81.166, 230.656 80.573" stroke="#000" stroke-width="1" fill="none"></path></g><g><path d="M80 230 C103.293 233.351, 126.452 251.41, 128.303 273.484 C124.686 258.524, 127.457 246.22, 128.599 228.237 C109.785 233.247, 93.571 228.829, 80.869 229.111 Z" stroke="none" stroke-width="0" fill="red"></path><path d="M80 230 C106.354 228.671, 125.868 248.73, 125.569 273.861 M79.17 229.81 C102.922 229.06, 125.582 248.203, 124.801 274.9 M126.523 275.041 C125.077 259.441, 123.338 240.718, 123.326 229.664 M124.6 275.828 C124.536 264.648, 125.635 253.085, 125.954 230.261 M126.882 230.563 C113.967 228.356, 102.58 232.086, 81.874 230.18 M124.03 229.393 C110.319 230.812, 96.366 229.907, 80.431 230.259" stroke="#000" stroke-width="1" fill="none"></path></g><g><path d="M230 230 C229.506 195.748, 265.255 173.513, 298.699 189.568 C327.89 209.756, 326.762 252.524, 296.313 269.76 C288.086 273.954, 285.026 277.97, 276.107 273.643 C272.807 266.092, 276.72 253.575, 274.851 226.471 C260.913 230.816, 248.063 230.593, 232.007 228.533 Z" stroke="none" stroke-width="0" fill="blue"></path><path d="M230 230 C228.046 195.73, 267.771 175.288, 295.556 191.478 M229.265 229.733 C228.108 195.631, 266.523 172.68, 298.412 190.328 M297.5 191.029 C325.898 210.335, 328.484 251.702, 295.717 267.685 M296.503 191.604 C325.599 209.503, 325.432 253.947, 296.338 269.687 M297.5 268.971 C292.14 272.24, 281.651 275.34, 275.349 275.843 M297.306 268.458 C289.136 271.71, 283.534 273.294, 274.447 272.953 M275.224 274.845 C275.872 264.699, 273.274 254.644, 276.222 231.651 M275.049 274.544 C275.538 259.996, 275.35 246.463, 275.358 229.735 M275.014 228.33 C260.568 232.069, 245.237 228.425, 229.112 229.602 M274.318 230.933 C264.223 230.891, 254.623 230.669, 229.079 230.618" stroke="#000" stroke-width="1" fill="none"></path></g>
</svg>
